<?xml version="1.0" encoding="UTF-8"?>
<!DOCTYPE svg PUBLIC "-//W3C//DTD SVG 1.1//EN" "http://www.w3.org/Graphics/SVG/1.1/DTD/svg11.dtd">
<svg version="1.1" xmlns="http://www.w3.org/2000/svg" xmlns:xlink="http://www.w3.org/1999/xlink" x="0" y="0" width="588.777" height="149.235" viewBox="0, 0, 588.777, 149.235">
  <g id="Capa_1" transform="translate(-0, -0)">
    <g>
      <path d="M46.667,134 C41.167,134 0,72.44 0,46.667 C0,20.894 20.894,0 46.667,0 C72.44,0 93.334,20.894 93.334,46.667 C93.334,72.44 51.5,134 46.667,134 z" fill="#D60A44"/>
      <path d="M66.091,61.309 Q67.944,61.309 69.263,62.628 Q70.582,63.947 70.582,65.8 Q70.582,67.652 69.179,69.112 Q60.478,76.69 48.69,76.69 Q35.667,76.69 26.461,67.484 Q17.255,58.278 17.255,45.255 Q17.255,32.232 26.461,23.026 Q35.667,13.82 48.69,13.82 Q60.478,13.82 69.179,21.398 Q70.75,22.801 70.75,24.878 Q70.75,26.731 69.431,28.05 Q68.112,29.369 66.26,29.369 Q64.632,29.369 63.397,28.359 Q57.11,22.801 48.69,22.801 Q39.372,22.801 32.804,29.369 Q26.236,35.937 26.236,45.255 Q26.236,54.573 32.804,61.141 Q39.372,67.708 48.69,67.708 Q57.11,67.708 63.341,62.207 Q64.519,61.309 66.091,61.309 z" fill="#FFFFFF"/>
    </g>
    <path d="M191.477,96.587 Q193.782,96.587 195.422,98.228 Q197.063,99.869 197.063,102.173 Q197.063,104.477 195.318,106.293 Q184.495,115.719 169.832,115.719 Q153.633,115.719 142.181,104.268 Q130.73,92.817 130.73,76.618 Q130.73,60.418 142.181,48.967 Q153.633,37.516 169.832,37.516 Q184.495,37.516 195.318,46.942 Q197.273,48.688 197.273,51.271 Q197.273,53.576 195.632,55.216 Q193.991,56.857 191.687,56.857 Q189.662,56.857 188.126,55.601 Q180.305,48.688 169.832,48.688 Q158.241,48.688 150.072,56.857 Q141.902,65.027 141.902,76.618 Q141.902,88.208 150.072,96.378 Q158.241,104.547 169.832,104.547 Q180.305,104.547 188.056,97.705 Q189.522,96.587 191.477,96.587 z" fill="#FFFFFF"/>
    <path d="M248.035,48.688 Q236.444,48.688 228.275,56.857 Q220.105,65.027 220.105,76.618 Q220.105,88.208 228.275,96.378 Q236.444,104.547 248.035,104.547 Q259.626,104.547 267.795,96.378 Q275.965,88.208 275.965,76.618 Q275.965,65.027 267.795,56.857 Q259.626,48.688 248.035,48.688 z M275.965,103.989 Q264.234,115.719 248.035,115.719 Q231.836,115.719 220.385,104.268 Q208.933,92.817 208.933,76.618 Q208.933,60.418 220.385,48.967 Q231.836,37.516 248.035,37.516 Q264.234,37.516 275.685,48.967 Q287.137,60.418 287.137,76.618 L287.137,110.133 Q287.137,112.437 285.496,114.078 Q283.855,115.719 281.551,115.719 Q279.246,115.719 277.606,114.078 Q275.965,112.437 275.965,110.133 z" fill="#FFFFFF"/>
    <path d="M298.308,43.102 Q298.308,40.798 299.949,39.157 Q301.59,37.516 303.894,37.516 Q306.199,37.516 307.839,39.157 Q309.48,40.798 309.48,43.102 L309.48,49.247 Q321.211,37.516 337.41,37.516 Q345.579,37.516 352.422,40.309 Q353.679,40.798 354.726,41.775 Q356.332,43.451 356.332,45.755 Q356.332,48.06 354.691,49.7 Q353.051,51.341 350.746,51.341 Q349.42,51.341 348.303,50.783 Q343.345,48.688 337.41,48.688 Q325.819,48.688 317.65,56.857 Q309.48,65.027 309.48,76.618 L309.48,110.133 Q309.48,112.437 307.839,114.078 Q306.199,115.719 303.894,115.719 Q301.59,115.719 299.949,114.078 Q298.308,112.437 298.308,110.133 z" fill="#FFFFFF"/>
    <path d="M365.34,43.102 Q365.34,40.798 366.981,39.157 Q368.621,37.516 370.926,37.516 Q373.23,37.516 374.871,39.157 Q376.512,40.798 376.512,43.102 L376.512,49.247 Q388.242,37.516 404.441,37.516 Q412.611,37.516 419.453,40.309 Q420.71,40.798 421.758,41.775 Q423.364,43.451 423.364,45.755 Q423.364,48.06 421.723,49.7 Q420.082,51.341 417.778,51.341 Q416.451,51.341 415.334,50.783 Q410.376,48.688 404.441,48.688 Q392.85,48.688 384.681,56.857 Q376.512,65.027 376.512,76.618 L376.512,110.133 Q376.512,112.437 374.871,114.078 Q373.23,115.719 370.926,115.719 Q368.621,115.719 366.981,114.078 Q365.34,112.437 365.34,110.133 z" fill="#FFFFFF"/>
    <path d="M449.129,59.347 L449.129,110.133 Q449.129,112.437 447.488,114.078 Q445.847,115.719 443.543,115.719 Q441.239,115.719 439.598,114.078 Q437.957,112.437 437.957,110.133 L437.957,60.4 C439.386,61.64 441.131,64.686 443.161,65.16 C445.544,64.021 447.549,61.336 449.129,59.347 z" fill="#FFFFFF"/>
    <path d="M510.574,4 Q512.878,4 514.519,5.641 Q516.16,7.282 516.16,9.586 Q516.16,11.891 514.519,13.531 Q512.878,15.172 510.574,15.172 Q488.23,15.172 488.23,37.516 L488.23,41.706 L505.058,41.706 Q507.362,41.706 509.003,43.346 Q510.644,44.987 510.644,47.291 Q510.644,49.596 509.003,51.237 Q507.362,52.877 505.058,52.877 L488.23,52.877 L488.23,110.133 Q488.23,112.437 486.589,114.078 Q484.949,115.719 482.644,115.719 Q480.34,115.719 478.699,114.078 Q477.058,112.437 477.058,110.133 L477.058,52.877 L471.472,52.877 Q469.168,52.877 467.527,51.237 Q465.887,49.596 465.887,47.291 Q465.887,44.987 467.527,43.346 Q469.168,41.706 471.472,41.706 L477.058,41.706 L477.058,37.516 Q477.058,4 510.574,4 z" fill="#FFFFFF"/>
    <path d="M549.187,110.063 L522.374,45.685 Q521.746,44.498 521.746,43.102 Q521.746,40.798 523.387,39.157 Q525.028,37.516 527.332,37.516 Q529.636,37.516 531.312,39.122 Q532.219,40.1 532.638,41.217 L555.261,95.47 L577.885,41.217 Q578.303,40.1 579.281,39.122 Q580.887,37.516 583.191,37.516 Q585.495,37.516 587.136,39.157 Q588.777,40.798 588.777,43.102 Q588.777,44.498 588.149,45.685 L546.533,145.534 Q546.115,146.651 545.207,147.559 Q543.531,149.235 541.227,149.235 Q538.923,149.235 537.282,147.594 Q535.641,145.953 535.641,143.649 Q535.641,142.252 536.269,141.065 z" fill="#FFFFFF"/>
    <path d="M443.161,4.385 C454.241,4.385 463.224,13.367 463.224,24.447 C463.224,35.528 445.239,56.993 443.161,56.993 C440.796,56.993 423.098,35.528 423.098,24.447 C423.098,13.367 432.081,4.385 443.161,4.385 z M443.161,13.704 C437.362,13.704 432.661,18.405 432.661,24.204 C432.661,30.003 437.362,34.704 443.161,34.704 C448.96,34.704 453.661,30.003 453.661,24.204 C453.661,18.405 448.96,13.704 443.161,13.704 z" fill="#D60A44"/>
  </g>
</svg>
