<?xml version="1.0" encoding="UTF-8"?>
<!DOCTYPE svg PUBLIC "-//W3C//DTD SVG 1.1//EN" "http://www.w3.org/Graphics/SVG/1.1/DTD/svg11.dtd">
<svg version="1.1" xmlns="http://www.w3.org/2000/svg" xmlns:xlink="http://www.w3.org/1999/xlink" x="0" y="0" width="399.843" height="703.391" viewBox="0, 0, 399.843, 703.391">
  <g id="Capa_1" transform="translate(-115.424, -52.609)">
    <g>
      <path d="M323.727,386.135 L370.068,267.982" fill-opacity="0" stroke="#393737" stroke-width="3"/>
      <g>
        <g>
          <path d="M366.67,278.304 C357.774,274.907 329.207,149.913 345.124,108.226 C361.041,66.539 407.738,45.648 449.425,61.565 C491.112,77.482 512.003,124.18 496.086,165.867 C480.169,207.554 374.487,281.289 366.67,278.304 z" fill="#86AF0D"/>
        </g>
        <g>
          <path d="M445.951,171.126 C422.936,189.616 392.04,189.372 376.943,170.58 C361.845,151.788 368.264,121.565 391.279,103.074 C414.294,84.584 445.19,84.828 460.287,103.62 C475.385,122.412 468.966,152.635 445.951,171.126 z" fill="#FFFFFF"/>
          <path d="M382.499,162.884 L398.025,152.136" fill-opacity="0" stroke="#86AF0D" stroke-width="4" stroke-linecap="round"/>
          <path d="M385.193,149.737 L395.513,165.57" fill-opacity="0" stroke="#86AF0D" stroke-width="4" stroke-linecap="round"/>
        </g>
      </g>
      <g>
        <g>
          <path d="M441.427,508.776 L440.115,559.425 L448.154,588.24 C448.154,588.24 463.699,612.069 463.699,612.069 C463.699,612.069 482.363,631.784 485.623,636.374 C488.883,640.963 509.492,655.153 509.492,655.153 C509.492,655.153 515.133,650.456 515.266,649.671 C515.398,648.886 505.838,638.587 497.905,631.792 C495.486,629.721 480.178,604.162 479.14,600.756 C478.102,597.35 471.355,575.213 471.753,572.858 C472.152,570.503 467,538.947 466.215,538.814 C465.43,538.681 463.564,502.029 463.564,502.029 L458.425,465.629 L441.427,508.776 z" fill="#DDDDDD"/>
          <path d="M455.896,599.705 L454.219,607.652 L459.471,616.029 L463.263,602.427 L455.896,599.705 z" fill="#DDDDDD"/>
          <path d="M447.022,585.653 L445.344,593.6 L450.597,601.977 L454.389,588.375 L447.022,585.653 z" fill="#DDDDDD"/>
          <path d="M464.204,607.566 L462.526,615.513 L467.779,623.89 L471.57,610.288 L464.204,607.566 z" fill="#DDDDDD"/>
          <path d="M471.376,613.397 L469.698,621.343 L474.951,629.721 L478.742,616.119 L471.376,613.397 z" fill="#DDDDDD"/>
          <path d="M479.908,622.11 L478.23,630.056 L483.483,638.433 L487.275,624.832 L479.908,622.11 z" fill="#DDDDDD"/>
          <path d="M488.281,629.887 L486.603,637.833 L491.856,646.21 L495.647,632.609 L488.281,629.887 z" fill="#DDDDDD"/>
          <path d="M497.602,637.421 L495.925,645.367 L501.177,653.745 L504.969,640.143 L497.602,637.421 z" fill="#DDDDDD"/>
        </g>
        <path d="M249.583,441.099 L240.595,525.761 C240.595,525.761 244.031,548.977 243.967,549.763 C243.902,550.548 240.503,607.994 240.503,607.994 L235.448,636.836 L237.734,649.676 C237.734,649.676 248.218,644.215 249.612,643.539 C251.006,642.863 261.943,631.904 262.008,631.118 C262.073,630.333 259.624,603.245 259.624,603.245 L261.891,575.755 L261.095,544.849 C261.095,544.849 264.933,506.418 265.128,504.061 C265.322,501.705 274.881,466.909 274.946,466.123 C275.01,465.338 277.131,431.51 277.131,431.51 C277.131,431.51 247.331,444.077 249.583,441.099 z" fill="#DDDDDD"/>
        <path d="M440.115,509.899 L415.927,533.505 L421.484,572.898 L421.464,614.999 C421.464,614.999 418.713,643.885 418.637,644.688 C418.561,645.49 409.298,672.947 409.221,673.749 C409.145,674.551 396.005,700.829 396.005,700.829 C396.005,700.829 379.628,712.224 378.969,712.161 C378.31,712.099 367.797,703.811 367.797,703.811 C367.797,703.811 377.308,687.713 377.308,687.713 C377.308,687.713 381.748,675.991 382.054,672.781 C382.36,669.572 387.058,648.158 388.023,645.011 C388.987,641.864 389.943,603.901 389.943,603.901 L386.429,584.944 C382.867,559.505 385.993,542.395 385.869,536.715 C385.745,531.036 385.172,509.12 385.172,509.12 L390.3,490.176 z" fill="#DDDDDD"/>
        <path d="M119.258,394.546 C119.258,394.546 160.965,386.504 167.469,381.799 C177.428,374.593 171.335,371.414 179.692,367.421 C188.048,363.428 232.489,364.281 242.032,367.879 C252.25,371.732 250.01,392.803 269.888,395.111 C289.765,397.419 293.548,390.055 303.59,388.548 C356.923,380.543 377.342,393.383 387.59,398.91 C397.837,404.438 420.404,417.893 428.256,426.869 C442.923,443.635 461.832,464.917 466.256,486.302 C470.256,505.635 464.923,554.969 456.923,569.635 C448.053,585.897 429.565,608.151 429.565,608.151 L436.237,640.81 L437.374,675.688 C437.374,675.688 435.402,699.607 435.347,700.271 C435.292,700.935 426.73,723.642 426.675,724.306 C426.621,724.971 414.127,746.684 414.127,746.684 C414.127,746.684 397.969,756.055 397.305,756 C396.64,755.945 385.838,749.034 385.838,749.034 C385.838,749.034 394.962,735.739 394.962,735.739 C394.962,735.739 399.106,726.046 399.325,723.389 C399.544,720.731 403.681,703.011 404.565,700.408 C405.448,697.805 405.366,666.359 405.366,666.359 L401.311,650.639 C401.311,650.639 396.591,634.865 396.81,632.207 C397.03,629.549 389.543,614.884 389.262,610.179 C388.981,605.473 387.803,587.315 387.803,587.315 C387.803,587.315 391.608,569.567 392.619,555.269 C393.631,540.97 406.532,509.244 399.59,498.969 C382.923,474.302 348.529,487.888 347.81,488.497 C347.091,489.107 331.261,494.491 331.261,494.491 C312,500.93 286.917,496.855 284.259,496.635 C281.602,496.416 256.073,489.628 256.073,489.628 C256.073,489.628 241.887,475.08 241.223,475.025 C240.559,474.97 229.22,454.286 229.888,458.354 C230.556,462.423 233.642,449.332 225.231,435.745 C216.819,422.158 163.675,427.809 163.675,427.809 C163.675,427.809 141.903,428.188 129.163,420.448 C116.423,412.708 115.371,413.29 115.426,412.626 C115.481,411.961 119.258,394.546 119.258,394.546 z" fill="#EEEEEE"/>
        <path d="M272.447,472.083 L263.459,556.745 C263.459,556.745 266.896,579.961 266.831,580.746 C266.766,581.532 263.367,638.978 263.367,638.978 L258.313,667.82 L260.598,680.66 C260.598,680.66 271.083,675.199 272.476,674.523 C273.87,673.847 284.808,662.888 284.872,662.102 C284.937,661.317 282.488,634.229 282.488,634.229 L284.755,606.739 L283.959,575.833 C283.959,575.833 287.798,537.402 287.992,535.045 C288.186,532.689 297.745,497.893 297.81,497.107 C297.875,496.322 299.995,462.493 299.995,462.493 C299.995,462.493 270.195,475.061 272.447,472.083 z" fill="#EEEEEE"/>
        <path d="M181.596,377.308 L174.075,371.169 L164.109,370.347 L173.096,364.782 C173.096,364.782 178.308,368.508 178.308,368.508 C178.308,368.508 182.587,371.369 182.587,371.369 C182.587,371.369 188.901,373.897 188.901,373.897 L181.596,377.308 z" fill="#EEEEEE"/>
        <path d="M121.116,398.91 L115.429,400.95 C115.429,400.95 115.375,410.728 115.624,410.749 C115.873,410.77 121.565,414.751 121.565,414.751 L130.812,399.961 L121.116,398.91 z" fill="#DCAD86"/>
        <path d="M169.866,385.446 L185.983,409.017 C185.983,409.017 205.53,421.415 206.029,421.457 C206.527,421.498 220.757,431.451 220.757,431.451 L233.436,423.717 L247.645,385.254 L244.429,371.527 C244.429,371.527 228.907,369.125 227.91,369.043 C226.914,368.961 196.288,369.229 196.288,369.229 C196.288,369.229 182.089,371.069 182.089,371.069 C182.089,371.069 179.104,376.843 179.104,376.843 C179.104,376.843 169.866,385.446 169.866,385.446 z" fill="#FFD8B8"/>
        <path d="M186.777,390.528 C183.887,390.29 181.729,387.866 181.955,385.114 C182.182,382.362 184.709,380.324 187.599,380.562 C190.488,380.8 192.647,383.225 192.42,385.977 C192.193,388.729 189.666,390.767 186.777,390.528 z" fill="#572800"/>
        <path d="M196.221,388.548 L188.701,382.409 L178.734,381.587 L187.722,376.022 C187.722,376.022 192.934,379.748 192.934,379.748 C192.934,379.748 197.213,382.609 197.213,382.609 C197.213,382.609 203.527,385.137 203.527,385.137 L196.221,388.548 z" fill="#EEEEEE"/>
        <path d="M122.208,416.306 L124.185,425.303 L133.526,431.51 L131.094,415.68 L122.208,416.306 z" fill="#EEEEEE"/>
        <path d="M142.671,421.577 L144.836,432.601 L155.358,440.143 L152.731,420.738 L142.671,421.577 z" fill="#EEEEEE"/>
        <path d="M155.358,424.535 L157.431,433.973 L167.23,440.484 L164.679,423.878 L155.358,424.535 z" fill="#EEEEEE"/>
        <path d="M164.373,421.192 L166.881,432.608 L178.734,440.484 L175.648,420.397 L164.373,421.192 z" fill="#EEEEEE"/>
        <path d="M133.526,421.243 L136.02,432.596 L147.807,440.428 L144.738,420.453 L133.526,421.243 z" fill="#EEEEEE"/>
        <path d="M227.807,376.812 L239.701,395.833 L252.801,392.464 L261.714,417.859 L267.729,391.091 L265.993,381.863 C265.993,381.863 248.92,370.5 242.499,370.528 C236.077,370.557 227.807,376.812 227.807,376.812 z" fill="#DCAD86"/>
      </g>
      <path d="M302.756,499.802 C329.756,446.135 323.423,385.135 323.423,385.135" fill-opacity="0" stroke="#665454" stroke-width="6" stroke-linecap="round"/>
      <path d="M372.756,483.135 C357.756,446.802 323.423,385.135 323.423,385.135" fill-opacity="0" stroke="#665454" stroke-width="6" stroke-linecap="round"/>
      <path d="M323.727,386.135 L232.252,245.4" fill-opacity="0" stroke="#393737" stroke-width="3"/>
      <path d="M323.727,386.135 L291.469,244.208" fill-opacity="0" stroke="#393737" stroke-width="3"/>
      <g>
        <g>
          <path d="M307.565,307.516 C298.058,308.048 220.945,205.612 218.453,161.059 C215.962,116.506 250.06,78.37 294.613,75.878 C339.165,73.387 377.302,107.485 379.793,152.037 C382.285,196.59 315.92,307.049 307.565,307.516 z" fill="#F25C17"/>
        </g>
        <path d="M257.75,160.537 Q255.57,134.702 268.176,121.113 Q278.711,109.816 295.113,108.432 Q313.347,106.894 325.981,118.484 Q338.615,130.075 340.485,152.233 Q342,170.186 337.747,180.909 Q333.495,191.631 324.192,198.15 Q314.89,204.668 303.316,205.644 Q284.749,207.211 272.244,195.653 Q259.738,184.096 257.75,160.537 z M273.154,159.237 Q274.661,177.103 282.822,185.367 Q290.982,193.631 302.222,192.683 Q313.379,191.741 320.036,182.183 Q326.692,172.625 325.148,154.321 Q323.692,137.068 315.49,128.807 Q307.288,120.547 296.214,121.481 Q284.974,122.43 278.31,131.901 Q271.646,141.371 273.154,159.237 z" fill="#FFFFFF"/>
      </g>
      <g>
        <path d="M250.396,281.985 C241.039,283.757 151.186,192.291 142.886,148.448 C134.586,104.604 163.401,62.333 207.244,54.034 C251.088,45.734 293.359,74.548 301.658,118.392 C309.958,162.236 258.618,280.429 250.396,281.985 z" fill="#D60A44"/>
        <path d="M260.017,152 Q263.168,151.403 265.837,153.223 Q268.506,155.042 269.102,158.193 Q269.699,161.344 267.781,164.279 Q255.421,179.972 235.367,183.768 Q213.214,187.962 194.589,175.266 Q175.963,162.57 171.77,140.416 Q167.576,118.262 180.272,99.637 Q192.968,81.012 215.122,76.818 Q235.175,73.022 252.416,83.112 Q255.542,84.993 256.211,88.526 Q256.807,91.677 254.988,94.346 Q253.169,97.015 250.018,97.611 Q247.248,98.136 244.822,96.814 Q232.338,89.385 218.014,92.097 Q202.163,95.097 193.105,108.385 Q184.048,121.672 187.048,137.524 Q190.049,153.375 203.336,162.433 Q216.624,171.49 232.475,168.49 Q246.799,165.778 255.627,154.413 Q257.343,152.506 260.017,152 z" fill="#FFFFFF"/>
      </g>
    </g>
  </g>
</svg>
