<?xml version="1.0" encoding="UTF-8" standalone="no"?>
<svg width="47px" height="65px" viewBox="0 0 47 65" version="1.1" xmlns="http://www.w3.org/2000/svg" xmlns:xlink="http://www.w3.org/1999/xlink">
    <!-- Generator: Sketch 39.1 (31720) - http://www.bohemiancoding.com/sketch -->
    <title>Fill 16 Copy + Stroke 17 Copy + Fill 18 Copy</title>
    <desc>Created with Sketch.</desc>
    <defs></defs>
    <g id="Page-1" stroke="none" stroke-width="1" fill="none" fill-rule="evenodd">
        <g id="Desktop" transform="translate(-168.000000, -2543.000000)">
            <g id="Rectangle-3-+-Fill-16-Copy-+-Stroke-17-Copy-+-Fill-18-Copy-+-Échale-un-vistazo" transform="translate(73.000000, 2545.000000)">
                <g id="Fill-16-Copy-+-Stroke-17-Copy-+-Fill-18-Copy" transform="translate(97.000000, 0.000000)">
                    <path d="M21.756224,61 C19.2524894,60.9999956 0.512456757,32.9764163 0.512456757,21.2438104 C0.512456757,9.51116085 10.0236139,0 21.756224,0 C33.4888428,0 43,9.51116085 43,21.2438104 C43,32.9764163 23.9564664,61.0000044 21.756224,61 L21.756224,61 Z" id="Fill-16-Copy" fill="#D60A44"></path>
                    <path d="M21.7561979,60.9999826 C19.2524546,60.9999826 0.512439328,32.9763727 0.512439328,21.2437668 C0.512439328,9.51116085 10.0235965,0 21.7561979,0 C33.4887993,0 42.9999564,9.51116085 42.9999564,21.2437668 C42.9999564,32.9763727 23.9564664,60.9999826 21.7561979,60.9999826 L21.7561979,60.9999826 Z" id="Stroke-17-Copy" stroke="#FFFFFF" stroke-width="4"></path>
                    <path d="M30.3807206,28.6718142 C30.9429224,28.6718142 31.4241685,28.8719813 31.8245025,29.2723155 C32.2248365,29.6726497 32.4250036,30.1539395 32.4250036,30.7160979 C32.4250036,31.2782563 32.2120701,31.7808091 31.7861597,32.2237561 C29.1456458,34.5235426 26.0366609,35.6734794 22.4591875,35.6734794 C18.5069261,35.6734794 15.1338768,34.2765362 12.3400394,31.4826934 C9.5462021,28.6888507 8.14928126,25.3158131 8.14928126,21.363537 C8.14928126,17.4113046 9.5462021,14.0382234 12.3400394,11.2443806 C15.1338768,8.45053787 18.5069261,7.05363827 22.4591875,7.05363827 C26.0366609,7.05363827 29.1456458,8.20353151 31.7861597,10.5033616 C32.2631794,10.9292286 32.5016892,11.4573577 32.5016892,12.0876618 C32.5016892,12.6498202 32.3015222,13.1311101 31.9011882,13.5314443 C31.5008106,13.9317784 31.0195645,14.1319455 30.4574063,14.1319455 C29.9633502,14.1319455 29.5289434,13.9786177 29.1541858,13.6719621 C27.2461942,11.9854433 25.0145281,11.1421621 22.4591875,11.1421621 C19.6312774,11.1421621 17.2207376,12.1387711 15.2275727,14.1319455 C13.2344078,16.1250764 12.2378253,18.5356214 12.2378253,21.363537 C12.2378253,24.1914527 13.2344078,26.6019977 15.2275727,28.5951721 C17.2207376,30.5883465 19.6312774,31.584912 22.4591875,31.584912 C25.0145281,31.584912 27.2376542,30.7501708 29.1286093,29.0806884 C29.4863741,28.8081056 29.9037445,28.6718142 30.3807206,28.6718142 L30.3807206,28.6718142 Z" id="Fill-18-Copy" fill="#FFFFFF"></path>
                </g>
            </g>
        </g>
    </g>
</svg>