<?xml version="1.0" encoding="UTF-8" standalone="no"?>
<svg width="939px" height="239px" viewBox="0 0 939 239" version="1.1" xmlns="http://www.w3.org/2000/svg" xmlns:xlink="http://www.w3.org/1999/xlink">
    <!-- Generator: Sketch 40 (33762) - http://www.bohemiancoding.com/sketch -->
    <title>Imported Layers Copy 2</title>
    <desc>Created with Sketch.</desc>
    <defs></defs>
    <g id="carrify.tech-U" stroke="none" stroke-width="1" fill="none" fill-rule="evenodd">
        <g id="Desktop-HD-Copy-2" transform="translate(-251.000000, -59.000000)">
            <g id="Imported-Layers-Copy-2" transform="translate(251.000000, 59.000000)">
                <path d="M74.4254922,213.987863 C65.653901,213.987847 0,115.782826 0,74.6674294 C0,33.5520005 33.3214281,0.221340394 74.4254922,0.221340394 C115.52954,0.221340394 148.850968,33.5520005 148.850968,74.6674294 C148.850968,115.782826 82.1338409,213.987863 74.4254922,213.987863 L74.4254922,213.987863 Z" id="Fill-1" fill="#D60A44"></path>
                <path d="M105.403873,98.0254368 C107.373411,98.0254368 109.059435,98.7269099 110.461978,100.12984 C111.864521,101.53277 112.565785,103.21926 112.565785,105.189326 C112.565785,107.159407 111.819754,108.920524 110.327693,110.472692 C101.076887,118.532071 90.1848232,122.56176 77.6514702,122.56176 C63.8051081,122.56176 51.9879622,117.666428 42.2000166,107.875796 C32.4120709,98.0851479 27.5181061,86.2647233 27.5181061,72.414586 C27.5181061,58.5644328 32.4120709,46.7439444 42.2000166,36.9532804 C51.9879622,27.1626163 63.8051081,22.267364 77.6514702,22.267364 C90.1848232,22.267364 101.076887,26.2970216 110.327693,34.3563368 C111.998806,35.8488734 112.834354,37.6995487 112.834354,39.9083626 C112.834354,41.8785237 112.133091,43.5650455 110.730548,44.9679279 C109.328005,46.3708103 107.64198,47.0722514 105.672443,47.0722514 C103.941651,47.0722514 102.419751,46.5349638 101.106726,45.4603884 C94.4222755,39.550224 86.6038675,36.5951418 77.6514702,36.5951418 C67.7441674,36.5951418 59.2990861,40.0875117 52.3162105,47.0722514 C45.3333508,54.0571508 41.841929,62.5044361 41.841929,72.414586 C41.841929,82.3245924 45.3333508,90.7720054 52.3162105,97.756793 C59.2990861,104.741581 67.7441674,108.233982 77.6514702,108.233982 C86.6038675,108.233982 94.3924362,105.308732 101.017208,99.4582146 C102.270539,98.5030294 103.73276,98.0254368 105.403873,98.0254368 L105.403873,98.0254368 Z" id="Fill-2" fill="#FFFFFF"></path>
                <path d="M305.37362,154.3038 C307.823442,154.3038 309.920805,155.17635 311.665392,156.921435 C313.409978,158.666519 314.282351,160.764334 314.282351,163.214895 C314.282351,165.665441 313.354318,167.856084 311.498253,169.786826 C299.991382,179.811804 286.442807,184.824293 270.852687,184.824293 C253.629301,184.824293 238.930054,178.735043 226.754948,166.556544 C214.579842,154.37806 208.49221,139.674756 208.49221,122.446645 C208.49221,105.218535 214.579842,90.5152463 226.754948,78.336715 C238.930054,66.1582475 253.629301,60.068934 270.852687,60.068934 C286.442807,60.068934 299.991382,65.0814388 311.498253,75.1064483 C313.576957,76.9630261 314.616309,79.2649879 314.616309,82.0125731 C314.616309,84.4631186 313.744095,86.5609494 311.999509,88.3060336 C310.254763,90.0511178 308.157559,90.9236679 305.707738,90.9236679 C303.554874,90.9236679 301.661649,90.2553286 300.028541,88.918666 C291.713726,81.5670136 281.988441,77.8911555 270.852687,77.8911555 C258.529103,77.8911555 248.024264,82.2353529 239.338491,90.9236679 C230.652558,99.6119829 226.309512,110.119642 226.309512,122.446645 C226.309512,134.773665 230.652558,145.281324 239.338491,153.969639 C248.024264,162.657954 258.529103,167.002103 270.852687,167.002103 C281.988441,167.002103 291.676566,163.363415 299.917063,156.086023 C301.47617,154.897864 303.294917,154.3038 305.37362,154.3038 L305.37362,154.3038 Z" id="Fill-3" fill="#D62343"></path>
                <path d="M395.573483,77.8911555 C383.249898,77.8911555 372.745219,82.2353529 364.059286,90.9236679 C355.373354,99.6119829 351.030307,110.119642 351.030307,122.446645 C351.030307,134.773665 355.373354,145.281324 364.059286,153.969639 C372.745219,162.657954 383.249898,167.002103 395.573483,167.002103 C407.897068,167.002103 418.401906,162.657954 427.087839,153.969639 C435.773772,145.281324 440.116658,134.773665 440.116658,122.446645 C440.116658,110.119642 435.773772,99.6119829 427.087839,90.9236679 C418.401906,82.2353529 407.897068,77.8911555 395.573483,77.8911555 L395.573483,77.8911555 Z M440.116658,166.111 C427.644595,178.586523 412.79687,184.824293 395.573483,184.824293 C378.350256,184.824293 363.651009,178.735043 351.475744,166.556544 C339.300638,154.37806 333.213165,139.674756 333.213165,122.446645 C333.213165,105.218535 339.300638,90.5152463 351.475744,78.336715 C363.651009,66.1582475 378.350256,60.068934 395.573483,60.068934 C412.79687,60.068934 427.496116,66.1582475 439.671222,78.336715 C451.846328,90.5152463 457.93396,105.218535 457.93396,122.446645 L457.93396,175.913198 C457.93396,178.363743 457.061587,180.461558 455.317001,182.206659 C453.572414,183.951743 451.47521,184.824293 449.025389,184.824293 C446.575408,184.824293 444.478204,183.951743 442.733618,182.206659 C440.989031,180.461558 440.116658,178.363743 440.116658,175.913198 L440.116658,166.111 Z" id="Fill-4" fill="#D62343"></path>
                <path d="M475.751262,68.9801245 C475.751262,66.5296269 476.623476,64.4316844 478.368063,62.6866162 C480.112809,60.9415479 482.210013,60.068934 484.659834,60.068934 C487.109655,60.068934 489.207018,60.9415479 490.951605,62.6866162 C492.696191,64.4316844 493.568405,66.5296269 493.568405,68.9801245 L493.568405,78.7823064 C506.040628,66.3067674 520.888353,60.068934 538.11158,60.068934 C546.797513,60.068934 554.778211,61.5541324 562.053515,64.5245293 C563.389825,65.0444285 564.614815,65.824038 565.728327,66.8636769 C567.435913,68.645915 568.289627,70.7623626 568.289627,73.2128602 C568.289627,75.6633579 567.417254,77.7613003 565.672667,79.5063367 C563.928081,81.2514209 561.830877,82.123971 559.381056,82.123971 C557.970427,82.123971 556.671277,81.8269313 555.483446,81.2328519 C550.212527,79.0050862 544.421852,77.8911555 538.11158,77.8911555 C525.787996,77.8911555 515.283317,82.2353529 506.597384,90.9236679 C497.911451,99.6119829 493.568405,110.119642 493.568405,122.446645 L493.568405,175.913198 C493.568405,178.363743 492.696191,180.461558 490.951605,182.206659 C489.207018,183.951743 487.109655,184.824293 484.659834,184.824293 C482.210013,184.824293 480.112809,183.951743 478.368063,182.206659 C476.623476,180.461558 475.751262,178.363743 475.751262,175.913198 L475.751262,68.9801245 Z" id="Fill-5" fill="#D62343"></path>
                <path d="M582.654756,68.9801245 C582.654756,66.5296269 583.527129,64.4316844 585.271716,62.6866162 C587.016302,60.9415479 589.113506,60.068934 591.563487,60.068934 C594.013308,60.068934 596.110512,60.9415479 597.855098,62.6866162 C599.599685,64.4316844 600.472058,66.5296269 600.472058,68.9801245 L600.472058,78.7823064 C612.944122,66.3067674 627.791847,60.068934 645.015233,60.068934 C653.701166,60.068934 661.681705,61.5541324 668.957168,64.5245293 C670.293478,65.0444285 671.518309,65.824038 672.63198,66.8636769 C674.339407,68.645915 675.19312,70.7623626 675.19312,73.2128602 C675.19312,75.6633579 674.320907,77.7613003 672.57632,79.5063367 C670.831734,81.2514209 668.73437,82.123971 666.284549,82.123971 C664.87408,82.123971 663.57493,81.8269313 662.387099,81.2328519 C657.11602,79.0050862 651.325505,77.8911555 645.015233,77.8911555 C632.691649,77.8911555 622.18681,82.2353529 613.500877,90.9236679 C604.814945,99.6119829 600.472058,110.119642 600.472058,122.446645 L600.472058,175.913198 C600.472058,178.363743 599.599685,180.461558 597.855098,182.206659 C596.110512,183.951743 594.013308,184.824293 591.563487,184.824293 C589.113506,184.824293 587.016302,183.951743 585.271716,182.206659 C583.527129,180.461558 582.654756,178.363743 582.654756,175.913198 L582.654756,68.9801245 Z" id="Fill-6" fill="#D62343"></path>
                <path d="M716.284123,94.8959754 L716.284123,175.91315 C716.284282,178.363728 715.411909,180.461558 713.667323,182.206659 C711.922736,183.951743 709.825532,184.824277 707.375551,184.824277 C704.92573,184.824277 702.828526,183.951743 701.08394,182.206659 C699.339353,180.461558 698.46698,178.363743 698.46698,175.913198 L698.466821,96.5745208 C700.746633,98.5528338 703.529136,103.412575 706.766485,104.168495 C710.567607,102.351831 713.765086,98.0676637 716.284123,94.8959754 L716.284123,94.8959754 Z" id="Fill-7" fill="#D62343"></path>
                <path d="M814.279204,6.60242918 C816.729026,6.60242918 818.82623,7.47504307 820.570816,9.22011133 C822.315403,10.9651796 823.187776,13.0629625 823.187776,15.5136197 C823.187776,17.9641173 822.315403,20.0619002 820.570816,21.8069685 C818.82623,23.5520367 816.729026,24.4246506 814.279204,24.4246506 C790.522749,24.4246506 778.6446,36.3060784 778.6446,60.068934 L778.6446,66.7523269 L805.481952,66.7523269 C807.931774,66.7523269 810.028978,67.6249408 811.773564,69.370009 C813.518151,71.1150773 814.390524,73.2128602 814.390524,75.6633579 C814.390524,78.114015 813.518151,80.2117979 811.773564,81.9568822 C810.028978,83.7019664 807.931774,84.5745164 805.481952,84.5745164 L778.6446,84.5745164 L778.6446,175.913198 C778.6446,178.363743 777.772387,180.461558 776.027641,182.206659 C774.283054,183.951743 772.18585,184.824293 769.736029,184.824293 C767.286048,184.824293 765.188844,183.951743 763.444258,182.206659 C761.699671,180.461558 760.827298,178.363743 760.827298,175.913198 L760.827298,84.5745164 L751.918727,84.5745164 C749.468906,84.5745164 747.371542,83.7019664 745.626956,81.9568822 C743.882369,80.2117979 743.010156,78.114015 743.010156,75.6633579 C743.010156,73.2128602 743.882369,71.1150773 745.626956,69.370009 C747.371542,67.6249408 749.468906,66.7523269 751.918727,66.7523269 L760.827298,66.7523269 L760.827298,60.068934 C760.827298,24.4246506 778.6446,6.60242918 814.279204,6.60242918 L814.279204,6.60242918 Z" id="Fill-8" fill="#D62343"></path>
                <path d="M875.860128,175.8018 L833.098699,73.1015102 C832.430464,71.8390118 832.096347,70.4653229 832.096347,68.9801245 C832.096347,66.5296269 832.96872,64.4316844 834.713307,62.6866162 C836.457893,60.9415479 838.555097,60.068934 841.005078,60.068934 C843.454899,60.068934 845.570762,60.9230428 847.352509,62.6309412 C848.317541,63.6705801 849.022776,64.7843991 849.468213,65.9725578 L885.548253,152.521578 L921.628134,65.9725578 C922.073571,64.7843991 922.815965,63.6705801 923.855317,62.6309412 C925.562744,60.9230428 927.641448,60.068934 930.091429,60.068934 C932.54125,60.068934 934.638454,60.9415479 936.38304,62.6866162 C938.127627,64.4316844 939,66.5296269 939,68.9801245 C939,70.4653229 938.665883,71.8390118 937.997808,73.1015102 L871.628401,232.387231 C871.182965,233.575377 870.47773,234.652135 869.512697,235.617503 C867.730951,237.399721 865.615088,238.29083 863.165267,238.29083 C860.715445,238.29083 858.618082,237.418285 856.873495,235.673197 C855.128909,233.928108 854.256695,231.830288 854.256695,229.379738 C854.256695,227.894557 854.590653,226.520763 855.258888,225.258359 L875.860128,175.8018 Z" id="Fill-9" fill="#D62343"></path>
                <path d="M706.766485,7.21517323 C724.43786,7.21533276 738.763278,21.5447057 738.763278,39.2208003 C738.763278,56.8968948 710.080546,91.1404654 706.766645,91.1404494 C702.995505,91.1404494 674.769852,56.8968948 674.769852,39.2208003 C674.769852,21.5447057 689.09527,7.21533276 706.766645,7.21533276 L706.766485,7.21517323 Z M706.766485,22.0821529 C697.518215,22.0821529 690.02091,29.5815275 690.020751,38.832511 C690.02091,48.0834945 697.518215,55.5828691 706.766485,55.5828691 C716.014915,55.5828691 723.512379,48.0834945 723.51222,38.832511 C723.512379,29.5815275 716.014915,22.0821529 706.766485,22.0821529 L706.766485,22.0821529 Z" id="Fill-10" fill="#D60A44"></path>
            </g>
        </g>
    </g>
</svg>