<?xml version="1.0" encoding="UTF-8" standalone="no"?>
<svg width="202px" height="61px" viewBox="0 0 202 61" version="1.1" xmlns="http://www.w3.org/2000/svg" xmlns:xlink="http://www.w3.org/1999/xlink" xmlns:sketch="http://www.bohemiancoding.com/sketch/ns">
    <!-- Generator: Sketch 3.3 (11970) - http://www.bohemiancoding.com/sketch -->
    <title>Imported Layers + Group</title>
    <desc>Created with Sketch.</desc>
    <defs>
        <path d="M4.78540302,2.5294496 C4.78540302,3.07724326 4.58833966,3.54817475 4.19421294,3.94230148 C3.80008622,4.3364569 3.32912603,4.53352026 2.78136106,4.53352026 C2.2335961,4.53352026 1.76263591,4.3364569 1.36850919,3.94230148 C0.974382465,3.54817475 0.777319104,3.07724326 0.777319104,2.5294496 C0.777319104,1.98168463 0.974382465,1.51072444 1.36850919,1.11659772 C1.76263591,0.722470999 2.2335961,0.525407639 2.78136106,0.525407639 C3.32912603,0.525407639 3.80008622,0.722470999 4.19421294,1.11659772 C4.58833966,1.51072444 4.78540302,1.98168463 4.78540302,2.5294496 L4.78540302,2.5294496 Z M1.17813324,8.94241831 C1.17813324,8.50153712 1.33510083,8.12408587 1.64906473,7.81012197 C1.96302862,7.49615808 2.34047987,7.33916178 2.78136106,7.33916178 C3.22224226,7.33916178 3.5996935,7.49615808 3.9136574,7.81012197 C4.22762129,8.12408587 4.38458889,8.50153712 4.38458889,8.94241831 L4.38458889,28.1812785 C4.38458889,28.6221683 4.22762129,28.9995966 3.9136574,29.3135663 C3.5996935,29.627533 3.22224226,29.7845178 2.78136106,29.7845178 C2.34047987,29.7845178 1.96302862,29.627533 1.64906473,29.3135663 C1.33510083,28.9995966 1.17813324,28.6221683 1.17813324,28.1812785 L1.17813324,8.94241831 Z" id="path-1"></path>
        <path id="path-3" d="M6.67175067,15.9293924 C5.99310762,15.9293924 0.913488091,9.76846445 0.913488091,6.58827052 C0.913488091,3.40807658 3.49155673,0.830007941 6.67175067,0.830007941 C9.8519733,0.830007941 12.4300132,3.40807658 12.4300132,6.58827052 C12.4300132,9.76846445 7.26813569,15.9293953 6.67175067,15.9293924 L6.67175067,15.9293924 Z"></path>
    </defs>
    <g id="Page-1" stroke="none" stroke-width="1" fill="none" fill-rule="evenodd" sketch:type="MSPage">
        <g id="Desktop" sketch:type="MSArtboardGroup" transform="translate(-51.000000, -17.000000)">
            <g id="Imported-Layers-+-Group" sketch:type="MSLayerGroup" transform="translate(51.000000, 17.000000)">
                <g id="Imported-Layers" transform="translate(0.666670, 0.000000)" sketch:type="MSShapeGroup">
                    <path d="M21.2437826,61 C18.7400467,60.9999952 0,32.9763951 0,21.2437826 C0,9.51117463 9.51116552,0 21.2437826,0 C32.9763951,0 42.4875607,9.51117463 42.4875607,21.2437826 C42.4875607,32.9763951 23.4440299,61.0000042 21.2437826,61 L21.2437826,61 Z" id="Fill-1" fill="#D60A44"></path>
                    <path d="M30.086156,27.9091843 C30.6483347,27.9091843 31.1295883,28.1093508 31.5299258,28.5096884 C31.9302634,28.9100259 32.1304299,29.391284 32.1304299,29.9534582 C32.1304299,30.5156324 31.9174852,31.0181813 31.491596,31.4611096 C28.8510744,33.7609189 25.7420774,34.910819 22.1645958,34.910819 C18.212333,34.910819 14.8392834,33.5139007 12.0454424,30.7200598 C9.25160142,27.9262188 7.85468321,24.5531692 7.85468321,20.6009063 C7.85468321,16.6486435 9.25160142,13.275603 12.0454424,10.4817575 C14.8392834,7.68791194 18.212333,6.29096642 22.1645958,6.29096642 C25.7420774,6.29096642 28.8510744,7.44090746 31.491596,9.74069851 C31.9685932,10.166606 32.2070896,10.6947112 32.2070896,11.3250142 C32.2070896,11.8871701 32.0069231,12.3684328 31.6065855,12.7688022 C31.206248,13.1691261 30.7249944,13.3692881 30.1628157,13.3692881 C29.668784,13.3692881 29.2343775,13.2159687 28.8595916,12.9093299 C26.9516027,11.2228164 24.7199404,10.3795142 22.1645958,10.3795142 C19.3366859,10.3795142 16.926148,11.3761358 14.9329775,13.3692881 C12.9398116,15.3624403 11.943231,17.7729919 11.943231,20.6009063 C11.943231,23.4288163 12.9398116,25.8393542 14.9329775,27.8325246 C16.926148,29.8256905 19.3366859,30.8222712 22.1645958,30.8222712 C24.7199404,30.8222712 26.9430854,29.9875272 28.8340399,28.3180391 C29.1917867,28.0454693 29.6091587,27.9091843 30.086156,27.9091843 L30.086156,27.9091843 Z" id="Fill-2" fill="#FFFFFF"></path>
                </g>
                <g id="Group" transform="translate(70.000000, 10.000000)">
                    <path d="M17.4352196,27.2934245 C17.8761094,27.2934245 18.2535405,27.4504093 18.5675073,27.7643761 C18.8814741,28.0783428 19.0384589,28.4557711 19.0384589,28.8966638 C19.0384589,29.3375536 18.8714544,29.7316832 18.5374455,30.0790526 C16.4665955,31.8826961 14.0283368,32.7845178 11.2226694,32.7845178 C8.12307457,32.7845178 5.47773287,31.6889707 3.28663857,29.4978764 C1.09554629,27.306785 0,24.6614404 0,21.5618455 C0,18.4622507 1.09554629,15.816909 3.28663857,13.625809 C5.47773287,11.4347204 8.12307457,10.3391618 11.2226694,10.3391618 C14.0283368,10.3391618 16.4665955,11.2409864 18.5374455,13.0446356 C18.9115358,13.3786618 19.0985796,13.7928192 19.0985796,14.2871508 C19.0985796,14.7280407 18.9415948,15.1054718 18.627628,15.4194386 C18.3136612,15.7334053 17.9362329,15.8903902 17.4953403,15.8903902 C17.1078923,15.8903902 16.7672046,15.7701459 16.4732771,15.5296603 C14.9769216,14.206988 13.2267171,13.5456461 11.2226694,13.5456461 C9.00485705,13.5456461 7.11437192,14.3272323 5.55121402,15.8903902 C3.98805613,17.4535481 3.20647575,19.3440332 3.20647862,21.5618455 C3.20647862,23.7796608 3.98805613,25.6701459 5.55121402,27.2333038 C7.11437192,28.7964617 9.00485705,29.5780392 11.2226694,29.5780392 C13.2267171,29.5780392 14.9702399,28.9233847 16.453235,27.6140729 C16.733802,27.4003054 17.0611293,27.2934245 17.4352196,27.2934245 L17.4352196,27.2934245 Z" id="Fill-1" fill="#FFFFFF" sketch:type="MSShapeGroup"></path>
                    <path d="M33.668014,13.5456461 C31.4502045,13.5456461 29.559705,14.3272323 27.9965529,15.8903902 C26.433395,17.4535481 25.6518174,19.3440332 25.6518174,21.5618455 C25.6518174,23.7796608 26.433395,25.6701459 27.9965529,27.2333038 C29.559705,28.7964617 31.4502045,29.5780392 33.668014,29.5780392 C35.8858235,29.5780392 37.776323,28.7964617 39.339455,27.2333038 C40.9026158,25.6701459 41.6842105,23.7796608 41.6842105,21.5618455 C41.6842105,19.3440332 40.9026158,17.4535481 39.339455,15.8903902 C37.776323,14.3272323 35.8858235,13.5456461 33.668014,13.5456461 L33.668014,13.5456461 Z M41.6842105,29.4177164 C39.4396801,31.6622497 36.7676146,32.7845178 33.668014,32.7845178 C30.5684134,32.7845178 27.9230717,31.6889707 25.7319803,29.4978764 C23.540886,27.306785 22.4453388,24.6614404 22.4453388,21.5618455 C22.4453388,18.4622507 23.540886,15.816909 25.7319803,13.625809 C27.9230717,11.4347204 30.5684134,10.3391618 33.668014,10.3391618 C36.7676146,10.3391618 39.4129591,11.4347204 41.6040477,13.625809 C43.7951363,15.816909 44.8906949,18.4622507 44.8906662,21.5618455 L44.8906662,31.1812785 C44.8906662,31.6221683 44.7336986,31.9995966 44.4197347,32.3135663 C44.1057708,32.627533 43.7283195,32.7845178 43.2874384,32.7845178 C42.8465572,32.7845178 42.4691346,32.627533 42.155142,32.3135663 C41.8411781,31.9995966 41.6842105,31.6221683 41.6842105,31.1812785 L41.6842105,29.4177164 Z" id="Fill-2" fill="#FFFFFF" sketch:type="MSShapeGroup"></path>
                    <path d="M48.0971505,11.9424183 C48.0971505,11.5015371 48.2541468,11.1240859 48.5681107,10.810122 C48.8820746,10.4961581 49.2594972,10.3391618 49.7004071,10.3391618 C50.1412883,10.3391618 50.5187108,10.4961581 50.8326747,10.810122 C51.1466386,11.1240859 51.3036349,11.5015371 51.3036349,11.9424183 L51.3036349,13.7059775 C53.5481653,11.4614414 56.2202308,10.3391618 59.3198314,10.3391618 C60.8829922,10.3391618 62.319207,10.6063712 63.6285331,11.14079 C63.8690216,11.2343277 64.0894766,11.3745911 64.2898693,11.5616377 C64.5971458,11.882289 64.7508127,12.2630696 64.7508127,12.7039508 C64.7508127,13.144832 64.5938164,13.5222833 64.2798525,13.8362414 C63.9658886,14.1502082 63.5884374,14.307193 63.1475562,14.307193 C62.8937216,14.307193 62.6599205,14.2537511 62.446153,14.1468673 C61.4975739,13.7460589 60.4554571,13.5456461 59.3198314,13.5456461 C57.1020219,13.5456461 55.2115225,14.3272323 53.6483617,15.8903902 C52.0852009,17.4535481 51.3036349,19.3440332 51.3036349,21.5618455 L51.3036349,31.1812785 C51.3036349,31.6221683 51.1466386,31.9995966 50.8326747,32.3135663 C50.5187108,32.627533 50.1412883,32.7845178 49.7004071,32.7845178 C49.2594972,32.7845178 48.8820746,32.627533 48.5681107,32.3135663 C48.2541468,31.9995966 48.0971505,31.6221683 48.0971505,31.1812785 L48.0971505,11.9424183 Z" id="Fill-3" fill="#FFFFFF" sketch:type="MSShapeGroup"></path>
                    <path d="M67.336028,11.9424183 C67.336028,11.5015371 67.4929956,11.1240859 67.8069595,10.810122 C68.1209521,10.4961581 68.4983746,10.3391618 68.9392558,10.3391618 C69.380137,10.3391618 69.7575882,10.4961581 70.0715521,10.810122 C70.385516,11.1240859 70.5425123,11.5015371 70.5424836,11.9424183 L70.5424836,13.7059775 C72.7870428,11.4614414 75.4591083,10.3391618 78.5586802,10.3391618 C80.1218409,10.3391618 81.5580844,10.6063712 82.8673819,11.14079 C83.1078703,11.2343277 83.3283253,11.3745911 83.528718,11.5616377 C83.8360232,11.882289 83.9896614,12.2630696 83.9896614,12.7039508 C83.9896614,13.144832 83.8326651,13.5222833 83.5187012,13.8362414 C83.2047373,14.1502082 82.8273148,14.307193 82.3864336,14.307193 C82.1325703,14.307193 81.8987692,14.2537511 81.6850017,14.1468673 C80.7364226,13.7460589 79.6943059,13.5456461 78.5586802,13.5456461 C76.3408707,13.5456461 74.4503999,14.3272323 72.8872391,15.8903902 C71.3240784,17.4535481 70.5424836,19.3440332 70.5424836,21.5618455 L70.5424836,31.1812785 C70.5424836,31.6221683 70.385516,31.9995966 70.0715521,32.3135663 C69.7575882,32.627533 69.380137,32.7845178 68.9392558,32.7845178 C68.4983746,32.7845178 68.1209521,32.627533 67.8069595,32.3135663 C67.4929956,31.9995966 67.336028,31.6221683 67.336028,31.1812785 L67.336028,11.9424183 Z" id="Fill-4" fill="#FFFFFF" sketch:type="MSShapeGroup"></path>
                    <path d="M109.02021,0.719737415 C109.46112,0.719737415 109.838542,0.876733713 110.152506,1.19069761 C110.46647,1.5046615 110.623466,1.88208405 110.623466,2.32299394 C110.623466,2.76387514 110.46647,3.14129768 110.152506,3.45526158 C109.838542,3.76922547 109.46112,3.92622177 109.02021,3.92622177 C104.744916,3.92622177 102.60727,6.06386844 102.60727,10.3391618 L102.60727,11.5416042 L107.437016,11.5416042 C107.877897,11.5416042 108.255348,11.6986005 108.569312,12.0125644 C108.883276,12.3265283 109.040243,12.7039508 109.040243,13.144832 C109.040243,13.5857419 108.883276,13.9631644 108.569312,14.2771312 C108.255348,14.591098 107.877897,14.7480828 107.437016,14.7480828 L102.60727,14.7480828 L102.60727,31.1812785 C102.60727,31.6221683 102.450273,31.9995966 102.13631,32.3135663 C101.822346,32.627533 101.444923,32.7845178 101.004013,32.7845178 C100.563132,32.7845178 100.18571,32.627533 99.8717456,32.3135663 C99.5577817,31.9995966 99.4007854,31.6221683 99.4007854,31.1812785 L99.4007854,14.7480828 L97.7975576,14.7480828 C97.3566477,14.7480828 96.9792252,14.591098 96.6652613,14.2771312 C96.3512974,13.9631644 96.1943011,13.5857419 96.1943011,13.144832 C96.1943011,12.7039508 96.3512974,12.3265283 96.6652613,12.0125644 C96.9792252,11.6986005 97.3566477,11.5416042 97.7975576,11.5416042 L99.4007854,11.5416042 L99.4007854,10.3391618 C99.4007854,3.92622177 102.60727,0.719737415 109.02021,0.719737415 L109.02021,0.719737415 Z" id="Fill-6" fill="#FFFFFF" sketch:type="MSShapeGroup"></path>
                    <path d="M120.102599,31.1612364 L112.407053,12.6839173 C112.286823,12.4567749 112.226694,12.2096277 112.226694,11.9424183 C112.226694,11.5015371 112.38369,11.1240859 112.697654,10.810122 C113.011618,10.4961581 113.389041,10.3391618 113.829922,10.3391618 C114.270832,10.3391618 114.651584,10.4928287 114.972235,10.8001052 C115.145936,10.9871518 115.272853,11.1875445 115.353016,11.4013121 L121.846119,26.9727761 L128.33925,11.4013121 C128.419413,11.1875445 128.553018,10.9871518 128.740064,10.8001052 C129.047341,10.4928287 129.421434,10.3391618 129.862315,10.3391618 C130.303196,10.3391618 130.680648,10.4961581 130.994611,10.810122 C131.308575,11.1240859 131.465543,11.5015371 131.465543,11.9424183 C131.465543,12.2096277 131.405442,12.4567749 131.285184,12.6839173 L119.341066,41.3418023 C119.260903,41.5555675 119.133986,41.7492923 118.960285,41.9229764 C118.639634,42.2436241 118.258882,42.4039479 117.818001,42.4039479 C117.377091,42.4039479 116.999669,42.2469642 116.685705,41.9329966 C116.371741,41.619029 116.214745,41.2415999 116.214745,40.8007092 C116.214745,40.5335029 116.274874,40.2863368 116.395104,40.0592114 L120.102599,31.1612364 Z" id="Fill-7" fill="#FFFFFF" sketch:type="MSShapeGroup"></path>
                    <g id="Fill-8" transform="translate(87.000000, 3.000000)">
                        <mask id="mask-2" sketch:name="Mask" fill="white">
                            <use xlink:href="#path-1"></use>
                        </mask>
                        <use id="Mask" fill="#FFFFFF" sketch:type="MSShapeGroup" xlink:href="#path-1"></use>
                        <path d="M2.67175067,15.2733328 C1.99310762,15.2733328 -3.08651191,9.11241631 -3.08651191,5.93222238 C-3.08651191,2.75199974 -0.508443266,0.1739311 2.67175067,0.1739311 C5.8519733,0.1739311 8.43001325,2.75199974 8.43001325,5.93222238 C8.43001325,9.11241631 3.26813569,15.2733356 2.67175067,15.2733328 L2.67175067,15.2733328 Z" fill="#424242" sketch:type="MSShapeGroup" mask="url(#mask-2)"></path>
                    </g>
                    <g id="Fill-10" transform="translate(83.000000, 0.000000)">
                        <mask id="mask-4" sketch:name="Mask" fill="white">
                            <use xlink:href="#path-3"></use>
                        </mask>
                        <use id="Mask" fill="#D60A44" sketch:type="MSShapeGroup" xlink:href="#path-3"></use>
                        <path d="M6.67175067,9.53205156 C5.0073603,9.53205156 3.65811058,8.18280184 3.65811058,6.51841147 C3.65811058,4.8540211 5.0073603,3.50477138 6.67175067,3.50477138 C8.33614104,3.50477138 9.68539076,4.8540211 9.68539076,6.51841147 C9.68539076,8.18280184 8.33614104,9.53205156 6.67175067,9.53205156 L6.67175067,9.53205156 Z" fill="#414141" sketch:type="MSShapeGroup" mask="url(#mask-4)"></path>
                    </g>
                </g>
            </g>
        </g>
    </g>
</svg>