<?xml version="1.0" encoding="UTF-8" standalone="no"?>
<svg width="258px" height="206px" viewBox="0 0 258 206" version="1.1" xmlns="http://www.w3.org/2000/svg" xmlns:xlink="http://www.w3.org/1999/xlink">
    <!-- Generator: Sketch 39.1 (31720) - http://www.bohemiancoding.com/sketch -->
    <title>Imported Layers</title>
    <desc>Created with Sketch.</desc>
    <defs></defs>
    <g id="Page-1" stroke="none" stroke-width="1" fill="none" fill-rule="evenodd">
        <g id="Desktop" transform="translate(-387.000000, -2039.000000)">
            <g id="Imported-Layers" transform="translate(387.000000, 2039.000000)">
                <path d="M125.231867,114.618028 C120.542741,114.618019 85.4455253,62.0418593 85.4455253,40.0299009 C85.4455253,18.0178472 103.258455,0.173574074 125.231867,0.173574074 C147.205185,0.173574074 165.018133,18.0178472 165.018133,40.0299009 C165.018133,62.0418593 129.352537,114.618028 125.231867,114.618028 L125.231867,114.618028 Z" id="Fill-1" fill="#FFFFFF"></path>
                <path d="M141.316215,53.1115685 C142.369065,53.1115685 143.270351,53.487137 144.02017,54.2381787 C144.769893,54.9893157 145.144802,55.892187 145.144802,56.946888 C145.144802,58.0015889 144.745997,58.9445157 143.948387,59.7754778 C139.003069,64.0902241 133.180362,66.2475972 126.480359,66.2475972 C119.078329,66.2475972 112.761137,63.6268194 107.528688,58.3851685 C102.296334,53.1435176 99.6800613,46.8152167 99.6800613,39.4002657 C99.6800613,31.9852194 102.296334,25.6569185 107.528688,20.4152676 C112.761137,15.1736167 119.078329,12.5528389 126.480359,12.5528389 C133.180362,12.5528389 139.003069,14.710212 143.948387,19.0249583 C144.841676,19.8239713 145.288368,20.8147741 145.288368,21.9973667 C145.288368,23.0520676 144.913459,23.9550343 144.163736,24.7060759 C143.413917,25.4571176 142.512631,25.8326861 141.459782,25.8326861 C140.534504,25.8326861 139.7209,25.5450491 139.019063,24.969775 C135.445621,21.8055769 131.266116,20.2234778 126.480359,20.2234778 C121.184123,20.2234778 116.669504,22.0932139 112.936596,25.8326861 C109.203784,29.5721583 107.33733,34.0946213 107.33733,39.4002657 C107.33733,44.7058148 109.203784,49.2282778 112.936596,52.96775 C116.669504,56.7072222 121.184123,58.5769583 126.480359,58.5769583 C131.266116,58.5769583 135.429722,57.0107861 138.971176,53.8786324 C139.641215,53.3672565 140.422831,53.1115685 141.316215,53.1115685 L141.316215,53.1115685 Z" id="Fill-3" fill="#D62343"></path>
                <path d="M46.7461346,195.531614 C47.3907443,195.531614 47.9361715,195.755134 48.3824354,196.202182 C48.8286992,196.649234 49.0518359,197.195626 49.0518359,197.841362 C49.0518359,198.462264 48.8658855,198.971402 48.4940037,199.368779 C45.7172477,201.529514 42.7669463,203.174902 39.6430995,204.30494 C36.5192526,205.43498 33.2218603,206 29.7509225,206 C25.7097571,206 21.9165097,205.242501 18.3711994,203.727503 C14.8258796,202.212505 11.6028598,200.064188 8.70214483,197.282552 C5.92539175,194.376736 3.78084624,191.148049 2.26850737,187.596494 C0.756169249,184.044949 0,180.245031 0,176.196759 C0,167.976034 2.90071494,160.959855 8.70214483,155.148223 C14.5283703,149.311756 21.544628,146.393519 29.7509225,146.393519 C36.8167714,146.393519 43.1016514,148.653596 48.605572,153.173761 C49.0518359,153.620809 49.274963,154.167196 49.274963,154.812929 C49.274963,155.433838 49.0518359,155.967807 48.605572,156.414856 C48.1593082,156.861904 47.6262669,157.085434 47.0064576,157.085434 C46.3618574,157.085434 45.7296432,156.787401 45.1098339,156.191336 C40.820741,152.714285 35.701107,150.975769 29.7509225,150.975769 C22.8090374,150.975769 16.8712483,153.446949 11.9375553,158.389318 C7.02865497,163.306862 4.57420386,169.242667 4.57420481,176.196759 C4.57420481,183.175686 7.02865592,189.123917 11.9375553,194.041452 C16.8464575,198.958985 22.7842466,201.417752 29.7509225,201.417751 C35.7506887,201.417751 41.0066914,199.567467 45.5189114,195.866898 C45.8412115,195.643369 46.2502891,195.531614 46.7461346,195.531614 L46.7461346,195.531614 Z" id="Fill-4" fill="#383838"></path>
                <path d="M67.2370849,184.61617 L59.4646587,204.584346 C59.3159041,204.93205 59.1423587,205.205247 58.9440128,205.403935 C58.5225399,205.801312 57.989508,206 57.3449079,206 C56.7002982,206 56.1548615,205.776476 55.7085976,205.329427 C55.2623338,204.882378 55.0392066,204.335985 55.0392066,203.690249 C55.0392066,203.36738 55.1135887,203.032094 55.2623433,202.68439 L76.4970571,148.032697 C76.6458117,147.635317 76.8441576,147.300033 77.0920756,147.026835 C77.5135486,146.604621 78.0465899,146.393519 78.69119,146.393519 C79.3357902,146.393519 79.8812269,146.617048 80.3274908,147.064087 C80.5754183,147.31245 80.7737546,147.635317 80.9225092,148.032697 L102.120018,202.68439 C102.26882,203.032094 102.343173,203.36738 102.343173,203.690249 C102.343173,204.335985 102.120018,204.882378 101.673801,205.329427 C101.22749,205.776476 100.694449,206 100.074677,206 C99.4300583,206 98.897017,205.81373 98.4755535,205.441189 C98.2523978,205.217665 98.0664664,204.93205 97.9177594,204.584346 L90.1824815,184.61617 L67.2370849,184.61617 Z M88.3974261,180.033929 L78.69119,154.999207 L69.0221402,180.033929 L88.3974261,180.033929 Z" id="Fill-5" fill="#383838"></path>
                <path d="M113.165083,150.975769 L113.165083,176.979092 L126.143911,176.979092 C129.714022,176.979092 132.763468,175.712459 135.292344,173.179184 C137.821125,170.645908 139.08561,167.578654 139.08561,163.977431 C139.08561,160.326529 137.821125,157.271701 135.292344,154.812929 C132.763468,152.254819 129.714022,150.975769 126.143911,150.975769 L113.165083,150.975769 Z M126.143911,146.393519 C131.003261,146.393519 135.131165,148.10721 138.527721,151.534573 C141.949125,154.961955 143.659731,159.109565 143.659731,163.977431 C143.659731,168.845296 141.961501,172.980489 138.564945,176.383027 C136.953445,177.997371 134.969987,179.338517 132.614761,180.406465 L146.337314,202.460865 C146.610071,202.858242 146.746401,203.268037 146.746401,203.690249 C146.746401,204.335985 146.523246,204.882378 146.07703,205.329427 C145.630718,205.776476 145.0853,206 144.440776,206 C143.647355,206 142.977983,205.590205 142.432565,204.770617 L127.891742,181.486839 C127.371173,181.536508 126.788531,181.561343 126.143911,181.561343 L113.165083,181.561343 L113.165083,203.690249 C113.165083,204.335985 112.941928,204.882378 112.495711,205.329427 C112.0494,205.776476 111.503982,206 110.859363,206 C110.239592,206 109.706551,205.776476 109.260239,205.329427 C108.814023,204.882378 108.590867,204.335985 108.590867,203.690249 L108.590867,148.703274 C108.590867,148.057531 108.814023,147.511135 109.260239,147.064087 C109.706551,146.617038 110.239592,146.393519 110.859363,146.393519 L126.143911,146.393519 Z" id="Fill-6" fill="#383838"></path>
                <path d="M157.791467,150.975769 L157.791467,176.979092 L170.770295,176.979092 C174.340406,176.979092 177.389852,175.712459 179.918728,173.179184 C182.447508,170.645908 183.711994,167.578654 183.711994,163.977431 C183.711994,160.326529 182.447508,157.271701 179.918728,154.812929 C177.389852,152.254819 174.340406,150.975769 170.770295,150.975769 L157.791467,150.975769 Z M170.770295,146.393519 C175.629644,146.393519 179.757549,148.10721 183.154105,151.534573 C186.575508,154.961955 188.286115,159.109565 188.286115,163.977431 C188.286115,168.845296 186.587885,172.980489 183.191329,176.383027 C181.579829,177.997371 179.59637,179.338517 177.241145,180.406465 L190.963698,202.460865 C191.236455,202.858242 191.372785,203.268037 191.372785,203.690249 C191.372785,204.335985 191.14963,204.882378 190.703413,205.329427 C190.257102,205.776476 189.711684,206 189.06716,206 C188.273739,206 187.604367,205.590205 187.058949,204.770617 L172.518126,181.486839 C171.997556,181.536508 171.414914,181.561343 170.770295,181.561343 L157.791467,181.561343 L157.791467,203.690249 C157.791467,204.335985 157.568311,204.882378 157.122095,205.329427 C156.675784,205.776476 156.130366,206 155.485747,206 C154.865976,206 154.332934,205.776476 153.886623,205.329427 C153.440407,204.882378 153.217251,204.335985 153.217251,203.690249 L153.217251,148.703274 C153.217251,148.057531 153.440407,147.511135 153.886623,147.064087 C154.332934,146.617038 154.865976,146.393519 155.485747,146.393519 L170.770295,146.393519 Z" id="Fill-7" fill="#383838"></path>
                <path d="M227.594557,150.975769 C220.702244,150.975769 214.764436,153.446949 209.781228,158.389318 C204.872278,163.306862 202.417851,169.242667 202.417851,176.196759 C202.417851,183.175686 204.872278,189.123917 209.781228,194.041452 C214.714931,198.958985 220.652644,201.417752 227.594557,201.417751 C234.536471,201.417751 240.461807,198.958984 245.370757,194.041452 C250.30446,189.123917 252.771263,183.175686 252.771263,176.196759 C252.771263,169.242667 250.30446,163.306853 245.370757,158.389318 C240.437055,153.446949 234.511623,150.975769 227.594557,150.975769 L227.594557,150.975769 Z M257.34548,176.196759 C257.34548,184.417485 254.432365,191.446081 248.606134,197.282552 C242.829505,203.094184 235.825614,206 227.594557,206 C223.553382,206 219.760116,205.242501 216.214853,203.727503 C212.669495,202.212505 209.446494,200.064188 206.545756,197.282552 C203.769066,194.376736 201.624525,191.148049 200.112131,187.596494 C198.599832,184.044949 197.843635,180.245031 197.843635,176.196759 C197.843635,167.976034 200.744373,160.959855 206.545756,155.148223 C212.371986,149.311756 219.388253,146.393519 227.594557,146.393519 C235.850462,146.393519 242.854258,149.311756 248.606134,155.148223 C254.432365,160.959855 257.34548,167.976034 257.34548,176.196759 L257.34548,176.196759 Z" id="Fill-8" fill="#FFFFFF"></path>
            </g>
        </g>
    </g>
</svg>