<?xml version="1.0" encoding="UTF-8" standalone="no"?>
<svg width="105px" height="34px" viewBox="0 0 105 34" version="1.1" xmlns="http://www.w3.org/2000/svg" xmlns:xlink="http://www.w3.org/1999/xlink">
    <!-- Generator: Sketch 39.1 (31720) - http://www.bohemiancoding.com/sketch -->
    <title>Group</title>
    <desc>Created with Sketch.</desc>
    <defs></defs>
    <g id="Con-fotos" stroke="none" stroke-width="1" fill="none" fill-rule="evenodd">
        <g id="Desktop" transform="translate(-216.000000, -6330.000000)">
            <g id="Group-+-2016-+-diseñáu-y-fechu-n’As-+-tumblr_lqi06rF3Vx1r0qmpvo1_500" transform="translate(216.000000, 6327.000000)">
                <g id="Group-+-2016">
                    <g id="Group" transform="translate(0.000000, 3.441860)">
                        <path d="M13.995377,21.2988442 C14.347257,21.2988442 14.6484888,21.423122 14.8990725,21.6716754 C15.149679,21.9202287 15.2749594,22.2190217 15.2749594,22.5680566 C15.2749594,22.9170892 15.1416615,23.2291038 14.8750885,23.5041005 C13.2222763,24.9319638 11.2762499,25.6458954 9.03696341,25.6458954 C6.5630826,25.6458954 4.45175664,24.7786001 2.70298554,23.0440095 C0.954214442,21.3094211 0.0798174385,19.215221 0.0798174385,16.7614114 C0.0798174385,14.3076018 0.954214442,12.213404 2.70298554,10.4788088 C4.45175664,8.74422271 6.5630826,7.87691831 9.03696341,7.87691831 C11.2762499,7.87691831 13.2222763,8.59085223 14.8750885,10.0187201 C15.173663,10.2831535 15.3229503,10.6110232 15.3229503,11.0023634 C15.3229503,11.351396 15.1976471,11.6501912 14.9470634,11.8987446 C14.6964797,12.1472979 14.3952479,12.2715757 14.043345,12.2715757 C13.7341185,12.2715757 13.462208,12.1763838 13.2276137,11.9860021 C12.0333383,10.9389021 10.6364472,10.4153475 9.03696341,10.4153475 C7.26684264,10.4153475 5.75800328,11.034094 4.51039949,12.2715757 C3.26279571,13.5090574 2.63900527,15.0056693 2.63900527,16.7614114 C2.63900527,18.5171558 3.26279571,20.0137677 4.51039949,21.2512494 C5.75800328,22.4887311 7.26684264,23.1074708 9.03696341,23.1074708 C10.6364472,23.1074708 12.0280009,22.5892103 13.2116244,21.5526872 C13.4355439,21.383457 13.6968024,21.2988442 13.995377,21.2988442 L13.995377,21.2988442 Z" id="Fill-3-Copy" fill="#FFFFFF"></path>
                        <path d="M26.9512324,10.4153475 C25.1811346,10.4153475 23.6722723,11.034094 22.4246685,12.2715757 C21.1770647,13.5090574 20.5532743,15.0056693 20.5532743,16.7614114 C20.5532743,18.5171558 21.1770647,20.0137677 22.4246685,21.2512494 C23.6722723,22.4887311 25.1811346,23.1074708 26.9512324,23.1074708 C28.7213303,23.1074708 30.2301926,22.4887311 31.4777734,21.2512494 C32.7253772,20.0137677 33.3491906,18.5171558 33.3491906,16.7614114 C33.3491906,15.0056693 32.7253772,13.5090574 31.4777734,12.2715757 C30.2301926,11.034094 28.7213303,10.4153475 26.9512324,10.4153475 L26.9512324,10.4153475 Z M33.3491906,22.9805505 C31.557766,24.7574463 29.4251132,25.6458954 26.9512324,25.6458954 C24.4773516,25.6458954 22.3660257,24.7786001 20.6172546,23.0440095 C18.8684835,21.3094211 17.9940865,19.215221 17.9940865,16.7614114 C17.9940865,14.3076018 18.8684835,12.213404 20.6172546,10.4788088 C22.3660257,8.74422271 24.4773516,7.87691831 26.9512324,7.87691831 C29.4251132,7.87691831 31.5364392,8.74422271 33.2852103,10.4788088 C35.0339814,12.213404 35.9083784,14.3076018 35.9083784,16.7614114 L35.9083784,24.3766831 C35.9083784,24.7257157 35.7830751,25.0245087 35.5324915,25.2730643 C35.2819078,25.5216176 34.9806531,25.6458954 34.628773,25.6458954 C34.276893,25.6458954 33.9756612,25.5216176 33.7250546,25.2730643 C33.4744709,25.0245087 33.3491906,24.7257157 33.3491906,24.3766831 L33.3491906,22.9805505 Z" id="Fill-4-Copy" fill="#FFFFFF"></path>
                        <path d="M38.4675433,9.14614427 C38.4675433,8.79711849 38.5928466,8.49830734 38.8434303,8.24975627 C39.0940139,8.0012052 39.3952458,7.87691831 39.7471487,7.87691831 C40.0990287,7.87691831 40.4002606,8.0012052 40.6508442,8.24975627 C40.9014279,8.49830734 41.0267312,8.79711849 41.0267312,9.14614427 L41.0267312,10.5422746 C42.8181558,8.76537648 44.9508085,7.87691831 47.4246893,7.87691831 C48.6722931,7.87691831 49.8185776,8.08845597 50.8635886,8.51153129 C51.0555294,8.58558083 51.2314809,8.69662106 51.3914201,8.84469742 C51.6366664,9.09854261 51.7593124,9.39998946 51.7593124,9.74901524 C51.7593124,10.098041 51.6340091,10.3968522 51.3834255,10.6453987 C51.1328418,10.893952 50.8315871,11.0182298 50.479707,11.0182298 C50.2771143,11.0182298 50.0905109,10.9759223 49.9198969,10.8913072 C49.1628085,10.5740053 48.331065,10.4153475 47.4246893,10.4153475 C45.6545914,10.4153475 44.1457292,11.034094 42.8981254,12.2715757 C41.6505216,13.5090574 41.0267312,15.0056693 41.0267312,16.7614114 L41.0267312,24.3766831 C41.0267312,24.7257157 40.9014279,25.0245087 40.6508442,25.2730643 C40.4002606,25.5216176 40.0990287,25.6458954 39.7471487,25.6458954 C39.3952458,25.6458954 39.0940139,25.5216176 38.8434303,25.2730643 C38.5928466,25.0245087 38.4675433,24.7257157 38.4675433,24.3766831 L38.4675433,9.14614427 Z" id="Fill-5-Copy" fill="#FFFFFF"></path>
                        <path d="M53.8226474,9.14614427 C53.8226474,8.79711849 53.9479278,8.49830734 54.1985115,8.24975627 C54.449118,8.0012052 54.7503499,7.87691831 55.1022299,7.87691831 C55.4541099,7.87691831 55.7553647,8.0012052 56.0059483,8.24975627 C56.256532,8.49830734 56.3818353,8.79711849 56.3818353,9.14614427 L56.3818353,10.5422746 C58.1732599,8.76537648 60.3059126,7.87691831 62.7797705,7.87691831 C64.0273743,7.87691831 65.1736817,8.08845597 66.2186698,8.51153129 C66.4106106,8.58558083 66.5865621,8.69662106 66.7465013,8.84469742 C66.9917705,9.09854261 67.1143936,9.39998946 67.1143936,9.74901524 C67.1143936,10.098041 66.9890903,10.3968522 66.7385067,10.6453987 C66.487923,10.893952 66.1866912,11.0182298 65.8348111,11.0182298 C65.6321955,11.0182298 65.4455921,10.9759223 65.2749781,10.8913072 C64.5178897,10.5740053 63.6861462,10.4153475 62.7797705,10.4153475 C61.0096726,10.4153475 59.5008333,11.034094 58.2532295,12.2715757 C57.0056257,13.5090574 56.3818124,15.0056693 56.3818353,16.7614114 L56.3818353,24.3766831 C56.3818353,24.7257157 56.256532,25.0245087 56.0059483,25.2730643 C55.7553647,25.5216176 55.4541099,25.6458954 55.1022299,25.6458954 C54.7503499,25.6458954 54.449118,25.5216176 54.1985115,25.2730643 C53.9479278,25.0245087 53.8226474,24.7257157 53.8226474,24.3766831 L53.8226474,9.14614427 Z" id="Fill-6-Copy" fill="#FFFFFF"></path>
                        <path d="M73.3364003,4.06928587 C73.3364003,4.50294943 73.1791183,4.87576468 72.8645544,5.18777705 C72.5499904,5.49981214 72.1741035,5.65581832 71.7369165,5.65581832 C71.2997294,5.65581832 70.9238425,5.49981214 70.6092785,5.18777705 C70.2947146,4.87576468 70.1374327,4.50294943 70.1374327,4.06928587 C70.1374327,3.63564503 70.2947146,3.26280706 70.6092785,2.95079469 C70.9238425,2.63878233 71.2997294,2.48277614 71.7369165,2.48277614 C72.1741035,2.48277614 72.5499904,2.63878233 72.8645544,2.95079469 C73.1791183,3.26280706 73.3364003,3.63564503 73.3364003,4.06928587 L73.3364003,4.06928587 Z M70.457334,9.14614427 C70.457334,8.79711849 70.5826144,8.49830734 70.833198,8.24975627 C71.0837817,8.0012052 71.3850364,7.87691831 71.7369165,7.87691831 C72.0887965,7.87691831 72.3900512,8.0012052 72.6406349,8.24975627 C72.8912185,8.49830734 73.0164989,8.79711849 73.0164989,9.14614427 L73.0164989,24.3766831 C73.0164989,24.7257157 72.8912185,25.0245087 72.6406349,25.2730643 C72.3900512,25.5216176 72.0887965,25.6458954 71.7369165,25.6458954 C71.3850364,25.6458954 71.0837817,25.5216176 70.833198,25.2730643 C70.5826144,25.0245087 70.457334,24.7257157 70.457334,24.3766831 L70.457334,9.14614427 Z" id="Fill-7-Copy" fill="#FFFFFF"></path>
                        <path d="M87.0919977,0.261653434 C87.4439006,0.261653434 87.7451324,0.38594033 87.9957161,0.6344914 C88.2462997,0.88304247 88.371603,1.18183089 88.371603,1.53087939 C88.371603,1.87990517 88.2462997,2.1786936 87.9957161,2.42724467 C87.7451324,2.67579574 87.4439006,2.80008263 87.0919977,2.80008263 C83.6797625,2.80008263 81.9736449,4.49236119 81.9736449,7.87691831 L81.9736449,8.82883778 L85.8284045,8.82883778 C86.1802846,8.82883778 86.4815393,8.95312467 86.732123,9.20167574 C86.9827066,9.45022681 87.107987,9.74901524 87.107987,10.098041 C87.107987,10.4470895 86.9827066,10.7458779 86.732123,10.9944313 C86.4815393,11.2429846 86.1802846,11.3672624 85.8284045,11.3672624 L81.9736449,11.3672624 L81.9736449,24.3766831 C81.9736449,24.7257157 81.8483416,25.0245087 81.5977579,25.2730643 C81.3471743,25.5216176 81.0459424,25.6458954 80.6940395,25.6458954 C80.3421595,25.6458954 80.0409277,25.5216176 79.790344,25.2730643 C79.5397603,25.0245087 79.4144571,24.7257157 79.4144571,24.3766831 L79.4144571,11.3672624 L78.1348746,11.3672624 C77.7829717,11.3672624 77.4817398,11.2429846 77.2311562,10.9944313 C76.9805725,10.7458779 76.8552692,10.4470895 76.8552692,10.098041 C76.8552692,9.74901524 76.9805725,9.45022681 77.2311562,9.20167574 C77.4817398,8.95312467 77.7829717,8.82883778 78.1348746,8.82883778 L79.4144571,8.82883778 L79.4144571,7.87691831 C79.4144571,2.80008263 81.9736449,0.261653434 87.0919977,0.261653434 L87.0919977,0.261653434 Z" id="Fill-8-Copy" fill="#FFFFFF"></path>
                        <path d="M95.9371724,24.3608166 L89.7951354,9.73315559 C89.6991764,9.55333722 89.6511855,9.35768193 89.6511855,9.14614427 C89.6511855,8.79711849 89.7764888,8.49830734 90.0270724,8.24975627 C90.2776561,8.0012052 90.5788879,7.87691831 90.9307679,7.87691831 C91.2826709,7.87691831 91.58656,7.9985695 91.842481,8.24182645 C91.9811164,8.38990281 92.0824128,8.5485447 92.1463931,8.71777483 L97.3287261,21.0450013 L102.511082,8.71777483 C102.575062,8.5485447 102.681696,8.38990281 102.830983,8.24182645 C103.07623,7.9985695 103.374804,7.87691831 103.726684,7.87691831 C104.078564,7.87691831 104.379819,8.0012052 104.630403,8.24975627 C104.880986,8.49830734 105.006267,8.79711849 105.006267,9.14614427 C105.006267,9.35768193 104.958299,9.55333722 104.862317,9.73315559 L95.3293713,32.420312 C95.2653911,32.5895403 95.1640947,32.7429035 95.0254593,32.8804014 C94.7695382,33.1342437 94.4656492,33.2611648 94.1137691,33.2611648 C93.7618662,33.2611648 93.4606344,33.1368879 93.2100507,32.8883339 C92.959467,32.6397799 92.8341638,32.3409863 92.8341638,31.991953 C92.8341638,31.7804178 92.8821547,31.5847475 92.9781136,31.4049426 L95.9371724,24.3608166 Z" id="Fill-9-Copy" fill="#FFFFFF"></path>
                        <path d="M71.6494332,14.158044 C71.1077886,14.158044 67.0535975,9.28072403 67.0535975,6.76310777 C67.0535975,4.24546879 69.1112285,2.204528 71.6494332,2.204528 C74.1876608,2.204528 76.245269,4.24546879 76.245269,6.76310777 C76.245269,9.28072403 72.1254254,14.1580463 71.6494332,14.158044 L71.6494332,14.158044 Z" id="Fill-10-Copy" fill="#D62343"></path>
                        <path d="M71.6494332,12.302452 C71.1077886,12.302452 67.0535975,7.42512294 67.0535975,4.90750669 C67.0535975,2.38989043 69.1112285,0.348949641 71.6494332,0.348949641 C74.1876608,0.348949641 76.245269,2.38989043 76.245269,4.90750669 C76.245269,7.42512294 72.1254254,12.3024543 71.6494332,12.302452 L71.6494332,12.302452 Z" id="Fill-11-Copy" fill="#FFFFFF"></path>
                        <path d="M71.6494332,7.23796551 C70.3210352,7.23796551 69.24416,6.1698253 69.24416,4.85220243 C69.24416,3.53457956 70.3210352,2.46643935 71.6494332,2.46643935 C72.9778313,2.46643935 74.0547065,3.53457956 74.0547065,4.85220243 C74.0547065,6.1698253 72.9778313,7.23796551 71.6494332,7.23796551 L71.6494332,7.23796551 Z" id="Fill-12-Copy" fill="#D62343"></path>
                    </g>
                </g>
            </g>
        </g>
    </g>
</svg>