<?xml version="1.0" encoding="UTF-8"?>
<!DOCTYPE svg PUBLIC "-//W3C//DTD SVG 1.1//EN" "http://www.w3.org/Graphics/SVG/1.1/DTD/svg11.dtd">
<svg version="1.1" xmlns="http://www.w3.org/2000/svg" xmlns:xlink="http://www.w3.org/1999/xlink" x="0" y="0" width="511" height="514.852" viewBox="0, 0, 511, 514.852">
  <g id="Capa_1" opacity="0.604" transform="translate(-40.499, -264.914)">
    <g>
      <path d="M295.999,779.766 C241.965,774.041 184.985,754.453 184.985,754.453 C184.985,754.453 130.251,718.714 130.251,718.714 C130.251,718.714 78.468,658.349 78.468,658.349 C78.468,658.349 47.448,583.698 47.448,583.698 C47.448,583.698 40.499,544.727 40.499,524.266 C40.499,524.266 40.499,524.266 40.499,524.266 C40.499,524.266 40.499,524.266 40.499,524.266 C46.676,468.174 60.882,424.096 60.882,424.096 C60.882,424.096 99.399,361.073 99.399,361.073 C99.399,361.073 183.889,294.611 183.889,294.611 C183.889,294.611 295.999,268.766 295.999,268.766 C295.999,268.766 386.565,288.615 386.565,288.615 C386.565,288.615 483.197,350.375 483.197,350.375 C483.197,350.375 532.572,433.428 535.036,433.838 C537.499,434.247 551.499,492.427 551.499,524.266 C551.499,524.266 551.499,524.266 551.499,524.266 C551.499,524.266 538.367,605.343 538.367,605.343 C538.367,605.343 514.956,656.015 514.956,656.015 C464.71,717.465 427.453,743.4 427.453,743.4 C427.453,743.4 370.249,768.81 370.249,768.81 C370.249,768.81 295.999,779.766 295.999,779.766 L295.999,779.766 z" fill="#FFC8DB"/>
      <path d="M413.999,725.58 C413.999,725.247 412.999,719.58 412.999,719.247 C418.999,711.247 421.666,701.58 421.666,701.58 C441.666,682.58 443.333,678.58 443.666,678.58 C446.333,684.247 446.333,691.58 445.999,691.914 C437.666,706.247 429.333,718.58 428.999,718.914 C428.666,719.247 413.999,725.58 413.999,725.58 z" fill="#FFBBD8"/>
      <path d="M248.333,461.247 L247.999,453.58 L252.999,451.247 L253.999,454.58 C253.999,454.58 253.666,460.247 253.666,460.58 C253.666,460.914 248.333,461.247 248.333,461.247 z" fill="#FFB4D0"/>
      <path d="M250.666,446.247 L253.999,441.914 C253.999,441.914 253.999,444.914 253.999,445.247 C253.999,445.58 253.999,448.58 253.999,448.58 L250.666,446.247 z" fill="#FF4437"/>
      <path d="M267.832,466.414 L274.165,465.414 L279.498,464.414 C279.498,464.414 279.165,468.08 279.165,468.414 C279.165,468.747 279.498,472.08 279.498,472.08 L274.832,471.414 L267.832,466.414 z" fill="#FFB4D0"/>
      <path d="M211.333,404.247 L230.666,400.914 L234.999,393.914 L232.999,392.247 L229.666,393.58 L229.333,385.914 L228.333,379.58 L224.333,378.914 L229.999,372.914 L225.666,370.914 L228.999,365.914 C228.999,365.914 223.999,367.58 223.999,367.58 C223.999,367.58 219.333,373.58 219.333,373.58 L217.999,378.58 L220.999,380.247 C220.999,380.247 217.999,390.914 217.999,390.914 C217.999,390.914 212.666,396.58 212.666,396.58 L216.333,397.58 L211.666,402.58 L211.333,404.247 z" fill="#FFBAB8"/>
      <path d="M199.999,396.914 L211.333,392.914 L215.333,383.247 L211.333,380.247 C211.333,380.247 204.666,384.247 204.666,384.247 L199.999,396.914 z" fill="#FFBBD8"/>
      <path d="M161.333,339.247 C161.333,339.247 199.999,321.914 199.999,321.914 C199.999,321.914 289.666,290.58 289.666,290.58 C289.666,290.58 291.999,294.247 291.999,294.247 C291.999,294.247 305.666,285.58 305.666,285.58 C305.666,285.58 314.666,287.914 314.666,287.914 C314.666,287.914 332.666,275.58 332.666,275.58 C332.666,275.58 302.999,264.914 302.999,264.914 C302.999,264.914 264.666,266.58 264.666,266.58 C264.666,266.58 218.999,278.914 218.999,278.914 C218.999,278.914 211.333,297.58 211.333,297.58 C211.333,297.58 167.999,321.914 167.999,321.914 C167.999,321.914 161.333,339.247 161.333,339.247 z" fill="#FFBBD8"/>
      <path d="M160.279,312.903 L143.666,326.569 L149.333,327.569 C149.333,327.569 127.333,345.569 127.333,345.569 C127.333,345.569 128.999,347.903 128.999,347.903 C128.999,347.903 125.999,355.569 125.999,355.569 C125.999,355.569 113.999,374.569 113.999,374.569 L108.333,377.903 L105.666,370.569 C112.666,363.569 115.333,359.903 115.333,359.903 C115.333,359.903 108.999,355.236 108.999,355.236 C108.999,355.236 100.999,368.569 100.999,368.903 C100.999,369.236 102.666,373.903 102.333,374.569 L89.333,374.903 C89.333,374.903 95.999,363.569 95.999,363.569 C95.999,363.569 107.999,348.569 107.999,348.569 L141.999,322.236 L160.279,312.903 z" fill="#FF9592"/>
      <path d="M89.333,671.914 C89.333,671.247 79.999,654.58 79.999,654.58 L83.333,640.58 L70.666,619.914 C55.333,597.247 46.666,576.58 46.666,576.58 C52.666,607.914 61.333,633.247 61.999,633.914 C62.666,634.58 78.666,659.914 78.666,659.914 L89.333,671.914 z" fill="#F28E87"/>
      <path d="M218.999,438.08 L199.666,431.414 L192.333,435.414 L192.999,446.08 L234.373,445.559 z" fill="#FF6E67"/>
      <path d="M218.999,438.08 L234.373,445.559 L235.833,439.314 L239.666,437.58 C239.666,437.58 218.999,438.08 218.999,438.08 z" fill="#FFB4D0"/>
      <path d="M258.333,433.647 L264.333,436.247 L266.333,445.58 L276.333,451.58 L285.666,462.247 L285.666,467.58 L292.333,458.914 L288.999,454.914 L294.333,456.247 L285.666,446.914 L276.333,438.247 L270.999,431.58 L274.333,427.58 C274.333,427.58 265.838,422.271 256.953,416.718 L258.333,433.647 z" fill="#FF9592"/>
      <path d="M257.787,416.718 L255.833,392.914 L263.958,391.142 L262.666,382.225 L263.999,374.892 L267.333,378.892 L267.333,387.559 L277.708,388.747 L271.708,407.747 L257.787,416.718 z" fill="#FF8073"/>
      <path d="M256.953,416.718 L275.749,404.247 L281.499,420.622 L274.333,427.58 L256.953,416.718 z" fill="#FFB4D0"/>
      <path d="M271.04,407.31 L276.874,388.747 L285.832,386.225 L289.832,389.559 L275.749,404.247 L271.04,407.31 z" fill="#FFBBD8"/>
      <path d="M297.832,447.559 L298.599,456.047 L313.498,475.559 L314.498,470.559 C314.498,470.559 320.199,468.184 320.199,468.184 C320.199,468.184 302.199,433.647 302.199,433.647" fill="#FFBAB8"/>
      <path d="M287.062,416.372 L281.499,420.622 L274.333,427.58 L297.832,447.559 L303.799,429.31 L287.062,416.372 z" fill="#E2A1BD"/>
      <path d="M281.499,420.622 L275.749,404.247 L289.832,389.559 L298.498,384.225 L295.999,409.647 L281.499,420.622 z" fill="#FF6E67"/>
      <path d="M295.999,409.647 L299.165,372.892 L310.199,381.847 L295.999,409.647 z" fill="#F07E98"/>
      <path d="M302.199,433.647 L312.498,453.559 L336.249,447.185 L304.799,426.047 L302.199,433.647 z" fill="#FF6E67"/>
      <path d="M287.062,416.372 L295.999,409.647 L309.874,413.997 L303.799,429.31 L287.062,416.372 z" fill="#FFA88B"/>
      <path d="M254.999,392.914 L258.333,433.647 L242.333,403.58 L254.999,392.914 z" fill="#FFBAB8"/>
      <path d="M276.583,358.647 L271.874,351.559 L256.541,356.892 C256.541,356.892 256.541,363.559 256.541,363.559 C256.541,363.559 271.465,373.234 271.465,373.234 L276.583,358.647 z" fill="#FF8073"/>
      <path d="M277.707,382.892 L285.707,378.892 L289.832,365.914 L276.874,354.847 L270.631,373.234 L277.707,382.892 z" fill="#FFB4D0"/>
      <path d="M281.499,339.247 L271.04,351.559 L275.749,358.647 L281.499,339.247 z" fill="#FFA88B"/>
      <path d="M291.707,324.892 L281.407,338.651 L276.874,354.847 L289.832,365.914 L300.04,347.225 L291.707,324.892 z" fill="#F77F76"/>
      <path d="M303.799,332.247 L299.04,323.559 L291.707,324.892 L300.04,347.225 L303.799,332.247 z" fill="#FFA88B"/>
      <path d="M327.707,328.892 L323.874,340.622 L329.04,340.225 L333.04,334.225 L327.707,328.892 z" fill="#F6ADBD"/>
      <path d="M315.208,328.892 L321.033,352.847 L328.541,328.892 L315.208,328.892 z" fill="#F89F95"/>
      <path d="M299.874,323.559 L315.208,328.892 L310.396,344.847 L299.874,323.559 z" fill="#F89F95"/>
      <path d="M299.04,361.225 L300.04,347.225 L303.597,332.935 L309.562,344.847 L309.562,368.58 L299.04,361.225 z" fill="#FFB4D0"/>
      <path d="M309.562,344.847 C309.562,344.847 318.187,343.447 318.187,343.447 C318.187,343.447 314.373,328.892 314.373,328.892 L309.562,344.847 z" fill="#FFBBD8"/>
      <path d="M239.666,437.58 L245.707,440.225 L258.333,433.647 L247.999,413.647 L239.666,437.58 z" fill="#FFA88B"/>
      <path d="M225.833,407.58 L236.433,406.847 L243.167,403.58 L248.833,413.647 L240.5,437.58 L225.833,407.58 z" fill="#FFB4D0"/>
      <path d="M229.799,416.718 L218.999,438.08 L239.666,437.58 L229.799,416.718 z" fill="#FFBBD8"/>
      <path d="M224.999,407.58 L217.707,413.559 L221.999,432.225 L229.799,416.718 L224.999,407.58 z" fill="#FFBAB8"/>
      <path d="M192.999,446.08 L185.04,455.047 L186.999,459.047 L218.999,456.747 L234.373,445.559 L192.999,446.08 z" fill="#FFBAB8"/>
      <path d="M201.999,457.247 L218.999,456.747 L218.999,461.997 L210.373,469.559 L200.373,469.559 L196.749,472.08 L201.999,457.247 z" fill="#FF6E67"/>
      <path d="M185.04,464.414 L186.999,459.047 L201.999,457.247 L196.749,472.08 L193.04,466.892 L185.04,464.414 z" fill="#FFBBD8"/>
      <path d="M337.999,324.892 L359.707,331.559 L329.749,347.56 L337.999,324.892 z" fill="#E7C2D0"/>
      <path d="M305.999,378.372 L309.562,368.58 L309.562,344.847 L318.187,343.447 L320.199,352.847 L324.373,362.56 L310.199,381.847 L305.999,378.372 z" fill="#F57EAB"/>
      <path d="M323.874,340.622 L333.191,351.559 L327.707,370.225 L320.199,352.847 L323.874,340.622 z" fill="#FFB7B7"/>
      <path d="M448.999,522.247 L459.707,495.559 L475.333,507.914 L454.999,542.247 L448.999,522.247 z" fill="#FFBAB8"/>
      <path d="M409.874,548.892 L424.833,519.247 L411.5,519.247 L385.167,523.247 L399.167,543.914 L409.874,548.892 z" fill="#FF8073"/>
      <path d="M429.04,482.892 L437.707,469.247 L452.333,451.247 L461.333,487.914 L429.04,482.892 z" fill="#E7C2D0"/>
      <path d="M506.373,495.559 L519.333,487.914 L507.666,456.747 L491.707,482.225 L506.373,495.559 z" fill="#FF9592"/>
      <path d="M524.333,513.247 L535.707,538.225 L535.666,487.914 L524.333,513.247 z" fill="#FFBBD8"/>
      <path d="M367.707,327.559 L397.333,308.247 L366.666,299.247 L367.707,327.559 z" fill="#FFA88B"/>
      <path d="M446.249,317.914 L471.04,336.225 L439.312,347.56 L446.249,317.914 z" fill="#FF6E67"/>
      <path d="M506.999,375.247 L521.999,403.58 L521.333,424.247 L504.333,409.647 L506.999,375.247 z" fill="#F57EAB"/>
      <path d="M395.666,434.064 L414.333,411.997 L402.666,386.642 L388.999,407.414 L395.666,434.064 z" fill="#F57EAB"/>
      <path d="M362.333,381.847 L393.333,360.58 L362.999,360.58 L356.39,360.914 L362.333,381.847 z" fill="#FFA88B"/>
      <path d="M304.937,426.309 L311.666,409.647 L350.666,431.414 L336.249,447.184 L304.937,426.309 z" fill="#FFB4D0"/>
      <path d="M330.373,453.559 L350.666,431.414 L376.249,448.872 L350.373,466.892 L335.707,467.559 L330.373,453.559 z" fill="#FF4437"/>
      <path d="M295.999,409.647 L310.199,381.847 L332.666,386.225 L309.874,413.997 L295.999,409.647 z" fill="#E7C2D0"/>
      <path d="M350.373,466.892 L382.249,444.497 L393.333,451.247 L356.39,471.185 L350.373,466.892 z" fill="#FFB7B7"/>
      <path d="M310.199,381.847 L324.373,362.247 C324.373,362.247 341.603,389.685 341.937,389.685 C342.27,389.685 310.199,381.847 310.199,381.847 z" fill="#F77F76"/>
      <path d="M361.666,501.497 L384.333,523.247 L410.666,519.247 L395.249,500.247 L361.666,501.497 z" fill="#FF6E67"/>
      <path d="M425.707,578.892 L437.707,569.497 L415.499,536.247 L409.04,548.892 L425.707,578.892 z" fill="#FFBAB8"/>
      <path d="M462.167,487.914 L492.541,482.225 L476.167,461.247 L462.167,487.914 z" fill="#FF8073"/>
      <path d="M524.333,513.247 L535.666,487.914 L535.707,470.892 L511.707,492.225 L524.333,513.247 z" fill="#FF4437"/>
      <path d="M438.541,569.497 C438.541,569.497 455.833,542.247 455.833,542.247 C455.833,542.247 449.833,522.247 449.833,522.247 L427.833,553.247 L438.541,569.497 z" fill="#FF8073"/>
      <path d="M432.999,497.497 L415.499,536.247 L426.999,552.747 L448.999,522.247 L452.499,513.247 L432.999,497.497 z" fill="#E7C2D0"/>
      <path d="M395.249,500.247 L432.999,497.497 L423.999,519.247 L410.666,519.247 L395.249,500.247 z" fill="#EEEDD3"/>
      <path d="M369.04,464.225 L388.999,453.559 L432.999,497.497 L407.499,499.247 L369.04,464.225 z" fill="#FF6E67"/>
      <path d="M452.499,441.047 L452.333,451.247 L461.333,487.914 L479.624,457.247 L466.249,433.647 L452.499,441.047 z" fill="#E2A1BD"/>
      <path d="M507.249,451.247 L507.666,456.747 L518.624,486.06 L535.707,470.892 L536.373,446.225 L506.999,447.559 L507.249,451.247 z" fill="#FF6E67"/>
      <path d="M521.999,403.58 L520.499,447.559 L536.373,446.225 L535.707,431.414 L521.999,403.58 z" fill="#FF9592"/>
      <path d="M546.373,459.047 L545.707,450.892 L535.707,431.414 L536.062,440.225 C536.062,440.225 546.373,459.047 546.373,459.047 z" fill="#FFA88B"/>
      <path d="M494.749,358.647 L506.999,375.247 L504.333,409.647 L499.812,397.435 L491.062,363.872 L494.749,358.647 z" fill="#FFB7B7"/>
      <path d="M471.04,336.225 L494.749,358.647 L486.562,370.225 L471.04,336.225 z" fill="#FF6E67"/>
      <path d="M476.187,462.247 L484.499,449.997 L506.999,447.559 L507.666,456.747 L491.707,482.225 L476.187,462.247 z" fill="#FF4437"/>
      <path d="M507.666,412.497 L506.999,447.559 L520.499,447.559 L521.333,424.247 L507.666,412.497 z" fill="#FFBAB8"/>
      <path d="M329.749,347.56 L352.749,334.997 L362.999,360.58 L347.249,362.247 L333.191,351.559 L329.749,347.56 z" fill="#E2A1BD"/>
      <path d="M342.503,389.685 L328.896,368.185 L334.025,351.559 L348.083,362.247 L342.503,389.685 z" fill="#FF8073"/>
      <path d="M312.937,410.247 L331.999,386.997 L341.937,389.685 L331.124,420.622 L312.937,410.247 z" fill="#FF9592"/>
      <path d="M347.249,362.247 L356.749,361.31 L362.999,384.225 L356.39,392.914 L341.666,389.247 L347.249,362.247 z" fill="#FFB7B7"/>
      <path d="M331.124,420.622 L338.624,399.247 L364.999,403.935 L361.666,424.247 L350.666,431.414 L331.124,420.622 z" fill="#E2A1BD"/>
      <path d="M376.249,448.872 L391.749,438.08 L366.666,420.622 L350.666,431.414 L376.249,448.872 z" fill="#FFB7B7"/>
      <path d="M338.624,399.247 L341.666,389.247 L373.499,396.914 L366.666,404.247 L338.624,399.247 z" fill="#FFBAB8"/>
      <path d="M425.499,489.997 L437.707,469.247 L412.999,451.247 L400.687,465.247 L425.499,489.997 z" fill="#F28E87"/>
      <path d="M388.999,453.559 L410.666,438.08 L417.437,446.892 L400.687,465.247 L388.999,453.559 z" fill="#F07E98"/>
      <path d="M382.249,444.497 L403.249,426.047 L416.749,435.247 L393.333,451.247 L382.249,444.497 z" fill="#E2A1BD"/>
      <path d="M375.187,426.622 L388.687,406.685 L395.249,432.997 L390.562,437.185 L375.187,426.622 z" fill="#FFB4D0"/>
      <path d="M361.666,424.664 L366.666,421.039 L375.187,410.064 L366.666,404.664 L364.999,404.352 L361.666,424.664 z" fill="#F57EAB"/>
      <path d="M376.021,426.622 L392.583,402.497 L385.521,396.622 L367.5,420.622 L376.021,426.622 z" fill="#FFA88B"/>
      <path d="M352.749,334.997 L377.874,320.935 L382.249,360.58 L362.999,360.58 L352.749,334.997 z" fill="#FFB4D0"/>
      <path d="M366.666,299.247 L361.666,280.225 L397.333,292.497 L378.312,302.685 L366.666,299.247 z" fill="#FFB7B7"/>
      <path d="M402.999,310.247 L378.312,302.685 L397.333,292.497 L419.707,299.559 L402.999,310.247 z" fill="#FF6E67"/>
      <path d="M446.249,317.914 L419.707,299.559 L402.999,310.247 L446.249,317.914 z" fill="#FFBBD8"/>
      <path d="M380.999,349.122 L377.499,321.06 L397.062,308.435 L402.999,310.247 L388.999,336.497 L380.999,349.122 z" fill="#E2A1BD"/>
      <path d="M421.374,313.497 L446.249,317.914 L441.499,338.185 L421.374,313.497 z" fill="#E2A1BD"/>
      <path d="M448.999,343.447 L471.04,336.225 L478.812,352.847 L475.333,362.247 L448.999,343.447 z" fill="#FFB7B7"/>
      <path d="M479.624,457.247 L484.499,449.997 L490.249,438.08 L475.333,427.58 L459.799,419.247 L466.249,433.647 L479.624,457.247 z" fill="#FFB4D0"/>
      <path d="M504.333,409.647 L507.666,412.497 L506.999,447.559 L484.499,449.997 L504.333,409.647 z" fill="#FF9592"/>
      <path d="M478.812,352.847 L464.599,387.497 L472.749,386.225 L492.187,381.847 L478.812,352.847 z" fill="#FFA88B"/>
      <path d="M491.124,363.56 L499.812,397.435 L486.562,370.225 C486.562,370.225 491.124,364.06 491.124,363.56 z" fill="#F57EAB"/>
      <path d="M472.749,386.225 L492.187,381.847 L500.249,398.247 L504.333,409.647 L497.749,422.997 L472.749,386.225 z" fill="#FFBBD8"/>
      <path d="M475.333,427.58 L481.499,398.997 L497.749,422.997 L490.249,438.08 L475.333,427.58 z" fill="#FF4437"/>
      <path d="M437.707,469.664 L452.333,451.664 L452.499,437.997 L437.707,448.997 L429.999,464.164 L437.707,469.664 z" fill="#F57EAB"/>
      <path d="M412.999,451.56 L423.999,440.225 L437.707,448.58 L429.999,463.747 L412.999,451.56 z" fill="#FF6E67"/>
      <path d="M417.437,446.892 L410.666,439.047 L419.707,432.225 L427.249,438.08 L417.437,446.892 z" fill="#FFB4D0"/>
      <path d="M375.187,409.647 L384.687,396.622 L377.499,390.497 L366.666,404.247 L375.187,409.647 z" fill="#FFB4D0"/>
      <path d="M382.249,360.997 L380.999,349.164 L388.999,336.642 L403.799,349.164 L393.333,360.997 L382.249,360.997 z" fill="#F57EAB"/>
      <path d="M395.666,322.647 L412.687,322.647 L427.999,321.497 L421.374,313.497 L402.999,310.247 L395.666,322.647 z" fill="#FFB7B7"/>
      <path d="M429.874,351.559 L449.833,343.447 L476.167,362.247 L444.033,364.497 L429.874,351.559 z" fill="#FF8073"/>
      <path d="M426.999,365.122 L475.333,362.247 L464.599,387.497 L426.999,365.122 z" fill="#FFB4D0"/>
      <path d="M357.224,392.914 L363.833,384.225 L378.333,390.497 L373.583,396.622 L357.224,392.914 z" fill="#FF8073"/>
      <path d="M463.033,399.497 L465.433,387.497 L473.583,386.225 L482.708,399.247 L463.033,399.497 z" fill="#FF8073"/>
      <path d="M459.799,419.247 L462.199,399.497 L481.499,399.247 L475.333,427.58 L459.799,419.247 z" fill="#FFB7B7"/>
      <path d="M452.499,441.047 L466.249,433.647 L459.799,419.247 L452.499,435.447 C452.499,435.447 452.499,441.047 452.499,441.047 z" fill="#FFA88B"/>
      <path d="M403.799,348.747 L412.999,322.647 L395.666,322.647 L388.999,336.225 L403.799,348.747 z" fill="#FF6E67"/>
      <path d="M427.999,321.497 L441.812,337.81 L439.312,347.56 L429.04,351.559 L427.999,321.497 z" fill="#FFB7B7"/>
      <path d="M404.633,348.747 L413.833,322.647 L428.833,321.497 L429.874,339.247 L404.633,348.747 z" fill="#FF8073"/>
      <path d="M403.799,348.747 L429.04,339.247 C429.04,339.247 429.04,351.559 429.04,351.559 C429.04,351.559 417.437,362.247 417.437,362.247 L403.799,348.747 z" fill="#FF9592"/>
      <path d="M446.249,376.622 L464.599,387.497 L462.199,399.497 L442.399,392.914 L446.249,376.622 z" fill="#FF9592"/>
      <path d="M437.707,448.58 L452.499,437.58 L452.499,429.31 L434.199,432.225 L424.437,440.56 L437.707,448.58 z" fill="#E7C2D0"/>
      <path d="M442.399,392.914 L462.199,399.497 L459.799,419.247 L441.499,406.997 L442.399,392.914 z" fill="#E8AB9D"/>
      <path d="M452.499,435.447 L452.099,413.497 L459.799,419.247 L452.499,435.447 z" fill="#FFB4D0"/>
      <path d="M434.199,432.225 L452.499,429.31 L452.099,413.497 L441.499,406.997 L434.199,432.225 z" fill="#F28E87"/>
      <path d="M419.707,432.225 L427.249,438.08 L434.199,432.225 L437.999,418.997 L429.04,424.247 L419.707,432.225 z" fill="#FFA88B"/>
      <path d="M434.199,391.847 L442.399,392.914 L446.249,376.622 L434.199,369.435 L434.199,391.847 z" fill="#FFA88B"/>
      <path d="M362.999,384.225 L362.333,381.847 L379.249,370.225 L377.499,390.497 L362.999,384.225 z" fill="#FFBBD8"/>
      <path d="M393.333,360.58 L403.799,348.747 L417.437,362.247 L413.312,366.372 L393.333,360.58 z" fill="#FFB7B7"/>
      <path d="M424.999,390.497 L439.666,392.914 L441.499,406.997 L437.707,419.247 L424.999,390.497 z" fill="#F07E98"/>
      <path d="M403.249,426.047 L415.499,410.747 L429.04,424.247 L416.187,434.997 L403.249,426.047 z" fill="#FFBAB8"/>
      <path d="M424.999,390.497 L437.707,419.247 L429.04,424.247 L415.499,410.747 L424.999,390.497 z" fill="#E7C2D0"/>
      <path d="M377.499,390.497 L391.749,402.497 L402.666,386.225 L391.749,375.247 L377.499,390.497 z" fill="#FFB7B7"/>
      <path d="M379.249,370.225 L393.333,360.58 L391.749,375.247 L377.499,390.497 L379.249,370.225 z" fill="#FFBAB8"/>
      <path d="M403.5,386.225 L413.033,365.914 L394.167,360.58 L392.583,375.247 L403.5,386.225 z" fill="#FF8073"/>
      <path d="M424.999,390.497 L415.499,410.747 L402.666,386.225 L412.199,365.914 L424.999,390.497 z" fill="#FFBAB8"/>
      <path d="M425.999,364.497 L434.199,369.435 L434.199,391.847 L424.999,390.497 L412.199,365.914 L425.999,364.497 z" fill="#FF6E67"/>
      <path d="M210.707,404.247 C210.707,404.247 230.04,400.914 230.04,400.914 L234.373,393.914 L229.04,393.58 L228.707,385.914 C228.707,385.914 212.04,396.58 212.04,396.58 L215.707,397.58 C215.707,397.58 210.707,404.247 210.707,404.247 z" fill="#FFBAB8"/>
      <path d="M221.833,380.247 L218.541,392.914 L229.541,385.914 L229.167,379.58 L221.833,380.247 z" fill="#FF8073"/>
      <path d="M218.999,374.892 L223.999,367.58 L228.707,365.914 L225.666,370.914 L229.999,372.914 L224.999,379.58 L218.999,380.247 L218.999,374.892 z" fill="#FFBAB8"/>
      <path d="M161.333,339.247 L167.999,321.914 L211.333,297.58 L208.999,317.914 L161.333,339.247 z" fill="#FFBAB8"/>
      <path d="M218.999,278.914 L211.333,297.58 L208.999,317.914 L234.999,310.247 L218.999,278.914 z" fill="#FFBBD8"/>
      <path d="M234.999,310.247 L289.666,290.58 L218.999,278.914 L234.999,310.247 z" fill="#FFBAB8"/>
      <path d="M257.123,488.185 L302.347,506.225 L269.381,516.247 L257.123,488.185 z" fill="#FFA88B"/>
      <path d="M416.749,605.872 L457.04,574.225 L453.707,596.892 L437.707,619.247 L416.749,605.872 z" fill="#FFBBD8"/>
      <path d="M223.333,619.247 L238.437,641.685 L267.562,643.935 L253.999,619.247 L223.333,619.247 z" fill="#FF4437"/>
      <path d="M196.749,626.58 C196.749,626.58 177.04,631.559 177.04,631.559 L158.373,622.225 L176.999,607.58 L196.749,626.58 z" fill="#FF4437"/>
      <path d="M229.312,628.122 L197.04,633.559 L189.624,628.372 L223.333,619.247 L229.312,628.122 z" fill="#FF6E67"/>
      <path d="M259.249,643.372 L255.707,663.247 L283.04,699.559 L294.333,671.914 L276.874,644.247 L259.249,643.372 z" fill="#FF6E67"/>
      <path d="M382.249,714.247 L387.874,730.622 L343.499,761.914 L356.39,743.914 L382.249,714.247 z" fill="#FF6E67"/>
      <path d="M406.666,671.914 L411.707,703.558 L399.666,710.247 L406.666,671.914 z" fill="#FFB4D0"/>
      <path d="M385.04,722.225 L399.666,710.247 L406.666,671.914 L395.249,670.247 L380.999,710.997 L385.04,722.225 z" fill="#FFD8B8"/>
      <path d="M283.04,699.559 L276.373,727.559 L306.373,756.225 L283.04,699.559 z" fill="#EEEDD3"/>
      <path d="M356.39,743.914 L343.499,761.914 L306.373,756.225 L302.373,746.58 L330.373,743.914 L356.39,743.914 z" fill="#FFB4D0"/>
      <path d="M395.249,670.247 L406.666,671.914 L437.707,619.247 L422.312,609.497 L395.249,670.247 z" fill="#FF8073"/>
      <path d="M406.666,564.247 L432.687,593.372 L416.749,605.872 L410.666,582.997 L406.666,564.247 z" fill="#FFBAB8"/>
      <path d="M294.749,727.914 L302.373,746.58 L330.373,743.914 L294.749,727.914 z" fill="#FFB7B7"/>
      <path d="M356.39,743.914 L382.249,714.247 L377.499,702.247 L343.499,727.914 L330.373,743.914 L356.39,743.914 z" fill="#FF8073"/>
      <path d="M283.04,699.558 L294.749,727.914 L330.373,743.914 L343.499,727.914 L317.599,710.247 L283.04,699.558 z" fill="#FFBAB8"/>
      <path d="M380.999,710.997 L373.499,692.247 L393.333,660.58 L396.312,667.559 L380.999,710.997 z" fill="#FFB4D0"/>
      <path d="M159.707,509.559 L197.04,475.425 L208.999,480.997 L192.333,505.914 L159.707,509.559 z" fill="#FF6E67"/>
      <path d="M135.208,576.892 L143.874,544.892 L163.5,554.914 L153.5,564.247 L135.208,576.892 z" fill="#FF8073"/>
      <path d="M340.689,516.247 L343.123,499.559 L350.64,495.559 L359.749,495.559 L355.14,509.559 L340.689,516.247 z" fill="#FFA88B"/>
      <path d="M307.874,492.892 L340.833,531.914 L345.208,499.559 L307.874,492.892 z" fill="#FF8073"/>
      <path d="M258.373,472.225 L258.373,488.185 L264.666,477.58 L258.373,472.225 z" fill="#FFB4D0"/>
      <path d="M203.04,478.225 L223.687,487.914 L225.04,472.225 L203.04,478.225 z" fill="#FFB4D0"/>
      <path d="M222.437,487.914 L223.79,472.225 L257.123,472.225 L257.083,487.914 L222.437,487.914 z" fill="#FFA88B"/>
      <path d="M143.04,544.892 L139.707,536.892 L159.707,509.559 L143.04,544.892 z" fill="#FFB4D0"/>
      <path d="M192.333,513.247 L192.333,505.914 L159.707,509.559 L192.333,513.247 z" fill="#EFE4AE"/>
      <path d="M163.5,554.914 L160.541,509.559 L143.874,544.892 L163.5,554.914 z" fill="#FF8073"/>
      <path d="M134.373,576.892 L176.999,607.58 L158.373,622.225 L134.373,576.892 z" fill="#FFBBD8"/>
      <path d="M152.666,564.247 L159.374,594.935 L134.373,576.892 L152.666,564.247 z" fill="#FFD8B8"/>
      <path d="M161.333,536.247 L159.707,509.559 L182.124,512.122 L161.333,536.247 z" fill="#FFB4D0"/>
      <path d="M192.333,505.914 L208.999,480.997 L223.687,487.914 L224.557,492.892 L221.812,496.06 L192.333,505.914 z" fill="#EEEDD3"/>
      <path d="M300.04,513.247 L307.04,492.892 L330.373,519.247 L325.999,529.247 L300.04,513.247 z" fill="#FFBAB8"/>
      <path d="M223.333,487.914 L270.631,516.247 L258.333,487.914 L223.333,487.914 z" fill="#FFB4D0"/>
      <path d="M180.312,610.747 L196.749,626.58 L223.333,619.247 L218.999,596.247 L180.312,610.747 z" fill="#FFD8B8"/>
      <path d="M152.666,564.247 L159.374,594.935 L176.999,607.58 L174.344,582.58 L152.666,564.247 z" fill="#FF6E67"/>
      <path d="M174.344,582.58 L218.999,596.247 L180.312,610.747 L176.999,607.58 L174.344,582.58 z" fill="#FFBAB8"/>
      <path d="M163.5,554.914 L162.167,536.247 L182.958,512.122 L193.167,513.236 L163.5,554.914 z" fill="#FF8073"/>
      <path d="M152.666,564.247 L162.666,554.914 L174.344,582.58 L152.666,564.247 z" fill="#FFBAB8"/>
      <path d="M192.333,513.247 L192.333,505.914 L223.333,495.559 L192.333,513.247 z" fill="#D69F71"/>
      <path d="M211.333,529.247 L199.999,544.892 L239.666,548.892 L240.499,536.247 L221.333,529.247 L211.333,529.247 z" fill="#EFE4AE"/>
      <path d="M268.666,538.225 L248.833,569.497 L280.333,574.225 L290.5,538.225 L276.583,531.914 L268.666,538.225 z" fill="#FF8073"/>
      <path d="M311.033,554.914 L342.5,552.747 L360.541,564.247 L340.833,578.892 L318.433,572.247 L311.033,554.914 z" fill="#FF8073"/>
      <path d="M274.333,612.914 L300.04,623.58 L306.373,598.247 L295.999,587.247 L274.333,612.914 z" fill="#FFBBD8"/>
      <path d="M341.668,647.247 L344.373,629.247 L364.687,615.914 L377.499,635.914 L373.499,651.914 L341.668,647.247 z" fill="#FF4437"/>
      <path d="M319.165,691.58 L343.499,695.58 L343.499,674.247 L322.999,671.914 L319.165,691.58 z" fill="#FF6E67"/>
      <path d="M289.666,538.225 L297.832,522.247 L256.953,519.247 L275.749,531.914 L289.666,538.225 z" fill="#E7C2D0"/>
      <path d="M309.562,529.247 L297.832,522.247 L300.04,513.247 L325.999,529.247 L309.562,529.247 z" fill="#D69F71"/>
      <path d="M162.666,554.914 L199.999,544.892 L211.333,529.247 L192.333,513.247 L162.666,554.914 z" fill="#EEEDD3"/>
      <path d="M240.499,536.247 L236.999,566.247 L247.999,569.497 L267.832,538.225 L240.499,536.247 z" fill="#EEEDD3"/>
      <path d="M256.953,519.247 L275.749,531.914 L267.832,538.225 L240.499,536.247 L250.666,523.247 L256.953,519.247 z" fill="#FF6E67"/>
      <path d="M192.333,513.091 L218.999,497.914 L222.625,519.102 L221.333,529.091 L211.333,529.091 L192.333,513.091 z" fill="#F57EAB"/>
      <path d="M221.333,529.102 L240.499,536.102 L250.666,523.102 L234.373,519.102 L222.625,519.102" fill="#F57EAB"/>
      <path d="M220.562,496.06 L223.375,492.892 L222.437,487.914 L244.687,501.497 L233.123,519.247 L221.375,519.247 L220.562,496.06 z" fill="#FFA88B"/>
      <path d="M245.937,501.497 L270.631,516.247 L256.953,519.247 L250.666,523.247 L234.373,519.247 L245.937,501.497 z" fill="#FFBBD8"/>
      <path d="M162.666,554.914 L183.937,549.31 L174.344,582.58 L162.666,554.914 z" fill="#EFE4AE"/>
      <path d="M218.541,546.58 L240.5,548.892 L237.833,566.247 L218.541,546.58 z" fill="#FF8073"/>
      <path d="M218.999,596.247 L223.333,619.247 L247.999,619.247 L218.999,596.247 z" fill="#FFB4D0"/>
      <path d="M289.666,538.225 L297.832,522.247 L309.562,529.247 L289.666,538.225 z" fill="#EEEDD3"/>
      <path d="M325.999,529.102 L330.373,519.102 L339.999,531.768 L325.999,529.102 z" fill="#F57EAB"/>
      <path d="M173.094,582.58 L198.749,544.892 L182.687,549.31 L173.094,582.58 z" fill="#FFA88B"/>
      <path d="M219.833,546.58 L175.178,582.58 L200.833,544.892 L219.833,546.58 z" fill="#FFB4D0"/>
      <path d="M200.749,591.372 L200.749,560.185 L173.094,582.58 L200.749,591.372 z" fill="#FFA88B"/>
      <path d="M201.999,577.247 L236.999,566.247 L218.187,547.122 L201.999,560.185 L201.999,577.247 z" fill="#FF6E67"/>
      <path d="M358.874,502.247 L356.39,509.559 L366.666,522.247 L380.999,533.247 L358.874,502.247 z" fill="#F07E98"/>
      <path d="M339.999,531.768 L341.939,516.102 L356.39,509.413 L366.666,522.102 L339.999,531.768 z" fill="#E7C2D0"/>
      <path d="M380.999,533.247 L406.666,564.247 L410.666,582.58 L397.333,572.247 L387.04,558.914 L380.999,533.247 z" fill="#FF6E67"/>
      <path d="M339.999,531.914 L366.666,522.247 L380.999,533.247 L387.04,558.914 L339.999,531.914 z" fill="#EFE4AE"/>
      <path d="M309.562,529.247 L325.999,529.247 L327.707,553.747 L310.199,554.914 L309.562,529.247 z" fill="#FF6E67"/>
      <path d="M324.749,529.247 L338.749,531.914 L340.416,552.747 L326.457,553.747 L324.749,529.247 z" fill="#FFA88B"/>
      <path d="M359.707,564.247 L359.707,543.247 L339.999,531.914 L341.666,552.747 L359.707,564.247 z" fill="#EEEDD3"/>
      <path d="M283.04,557.58 L289.666,538.225 L309.562,529.247 L310.199,554.914 L283.04,557.58 z" fill="#E7C2D0"/>
      <path d="M201.999,591.372 L201.999,577.247 L226.666,569.497 L218.999,596.247 L201.999,591.372 z" fill="#FFB4D0"/>
      <path d="M246.749,569.497 L235.749,566.247 L225.416,569.497 L217.749,596.247 L246.749,569.497 z" fill="#FFA88B"/>
      <path d="M279.498,574.225 L283.04,557.58 L310.199,554.914 L317.599,572.247 L279.498,574.225 z" fill="#EEEDD3"/>
      <path d="M276.874,644.247 L274.333,612.914 L253.999,619.247 L267.562,643.935 L276.874,644.247 z" fill="#FF9592"/>
      <path d="M317.599,710.247 L319.165,691.58 L283.04,699.558 L317.599,710.247 z" fill="#FFBAB8"/>
      <path d="M294.333,671.914 L322.999,671.914 L319.165,691.58 L283.04,699.559 L294.333,671.914 z" fill="#FFB7B7"/>
      <path d="M317.599,572.247 L306.373,598.247 L283.04,574.225 L317.599,572.247 z" fill="#FFB4D0"/>
      <path d="M218.999,596.247 L234.373,582.06 L239.666,592.247 L247.999,619.247 L218.999,596.247 z" fill="#FFB7B7"/>
      <path d="M247.999,569.497 L279.498,574.225 L239.666,592.247 L234.373,582.059 L247.999,569.497 z" fill="#FFB4D0"/>
      <path d="M294.749,587.247 L281.79,574.225 L278.248,574.225 L259.999,582.58 L294.749,587.247 z" fill="#FFA88B"/>
      <path d="M239.666,592.247 L261.249,582.58 L274.333,584.247 L265.999,596.247 L242.333,600.58 L239.666,592.247 z" fill="#FFD8B8"/>
      <path d="M274.333,612.914 L265.999,596.247 L274.333,584.247 L295.999,587.247 L274.333,612.914 z" fill="#FF9592"/>
      <path d="M242.333,600.58 L265.999,596.247 L274.333,612.914 L253.999,619.247 L247.999,619.247 L242.333,600.58 z" fill="#FFBAB8"/>
      <path d="M294.333,671.914 L300.04,623.58 L276.874,644.247 L294.333,671.914 z" fill="#FFB7B7"/>
      <path d="M306.373,598.247 L317.599,572.247 L339.999,578.892 L306.373,598.247 z" fill="#FFD8B8"/>
      <path d="M322.999,671.914 C322.999,671.914 341.668,647.247 341.668,647.247 L343.499,674.247 L322.999,671.914 z" fill="#FFBAB8"/>
      <path d="M343.499,727.914 L343.499,695.58 L319.165,691.58 L317.599,710.247 L343.499,727.914 z" fill="#FFD8B8"/>
      <path d="M377.499,702.247 L373.499,692.247 L343.499,695.58 L343.499,727.914 L377.499,702.247 z" fill="#FFBAB8"/>
      <path d="M296.103,653.914 L294.437,671.914 L322.999,671.914 C322.999,671.914 336.624,653.997 336.624,653.997 C336.624,653.997 296.103,653.914 296.103,653.914 z" fill="#FFD8B8"/>
      <path d="M343.499,674.247 L343.499,695.58 L373.499,692.247 L343.499,674.247 z" fill="#FFB7B7"/>
      <path d="M373.499,651.914 L343.499,674.247 L341.668,647.247 L373.499,651.914 z" fill="#FFB4D0"/>
      <path d="M373.499,692.247 L361.666,660.58 L343.499,674.247 L373.499,692.247 z" fill="#FFB7B7"/>
      <path d="M393.333,660.58 L373.499,692.247 L361.666,660.58 L373.499,651.914 L393.333,660.58 z" fill="#FF8073"/>
      <path d="M359.707,543.247 L359.707,564.247 L387.04,558.914 L359.707,543.247 z" fill="#E7C2D0"/>
      <path d="M296.937,653.914 L300.874,623.58 L337.458,653.997 L296.937,653.914 z" fill="#FF8073"/>
      <path d="M341.668,647.247 L336.624,653.997 L316.999,637.872 L344.373,629.247 L341.668,647.247 z" fill="#FFB4D0"/>
      <path d="M393.333,660.372 L396.312,667.789 L422.312,609.352 L416.749,605.435 L403.799,631.413 L393.333,660.372 z" fill="#F57EAB"/>
      <path d="M373.499,651.914 L377.499,635.914 L403.799,631.559 L393.333,660.58 L373.499,651.914 z" fill="#FFBAB8"/>
      <path d="M363.437,615.914 L376.249,635.914 L402.549,631.559 L415.499,605.58 L387.749,610.247 z" fill="#FFA88B"/>
      <path d="M306.373,598.247 L300.04,623.58 L316.999,637.872 L306.373,598.247 z" fill="#FFBAB8"/>
      <path d="M345.208,629.247 L328.541,612.914 L307.208,598.247 L317.833,637.872 L345.208,629.247 z" fill="#FF8073"/>
      <path d="M339.999,578.892 L327.707,612.914 L306.373,598.247 L339.999,578.892 z" fill="#FF9592"/>
      <path d="M364.999,615.914 L344.373,629.247 L327.707,612.914 L333.191,596.247 L364.999,615.914 z" fill="#FFB7B7"/>
      <path d="M416.749,605.58 L388.999,610.247 L391.749,596.247 L397.333,572.247 L410.666,582.58 L416.749,605.58 z" fill="#FF6E67"/>
      <path d="M349.416,607.58 L363.749,615.914 L387.749,610.247 L390.499,596.247 L363.749,603.247 L349.416,607.58 z" fill="#FFA88B"/>
      <path d="M339.999,578.892 L333.191,596.247 L350.666,607.58 L364.999,603.247 L339.999,578.892 z" fill="#FFBAB8"/>
      <path d="M359.707,564.247 L364.999,603.247 L339.999,578.892 L359.707,564.247 z" fill="#FFD8B8"/>
      <path d="M385.79,558.914 L363.749,603.247 L358.457,564.247 L385.79,558.914 z" fill="#FFA88B"/>
      <path d="M387.04,558.914 L397.333,572.247 L391.749,596.247 L364.999,603.247 L387.04,558.914 z" fill="#FFB4D0"/>
      <path d="M412.562,365.914 L442.937,364.185 L429.04,351.559 L412.562,365.914 z" fill="#FFB4D0"/>
      <path d="M218.999,498.06 L221.812,496.06 L222.625,519.247 L218.999,498.06 z" fill="#EEEDD3"/>
      <path d="M257.687,519.247 L302.373,506.225 L297.832,522.247 L257.687,519.247 z" fill="#EFE4AE"/>
      <path d="M358.874,502.664 L369.04,464.831 L407.999,500.186 L358.874,502.664 z" fill="#F57EAB"/>
      <path d="M276.874,644.247 L300.04,623.58 L274.333,612.914 L276.874,644.247 z" fill="#FFBAB8"/>
      <g>
        <path d="M301.004,534.673 L284.394,503.851 L288.675,489.81 L301.277,484.673 L314.188,489.81 L318.983,504.022 L301.004,534.673 z" fill="#2BC31C"/>
        <path d="M294.638,493.962 L308.739,493.962 L308.739,508.063 L294.638,508.063 L294.638,493.962 z" fill="#2E8B25"/>
      </g>
      <g>
        <path d="M307.326,398.951 L283.04,353.884 L289.299,333.353 L307.727,325.842 L326.604,333.353 L333.615,354.134 L307.326,398.951 z" fill="#E2446A"/>
        <path d="M298.018,339.424 L318.637,339.424 L318.637,360.043 L298.018,360.043 L298.018,339.424 z" fill="#C11D45"/>
      </g>
      <g>
        <path d="M68.961,629.667 L57.224,607.886 L60.249,597.963 L69.155,594.333 L78.279,597.963 L81.667,608.007 L68.961,629.667 z" fill="#E2446A"/>
        <path d="M64.463,600.898 L74.428,600.898 L74.428,610.863 L64.463,610.863 L64.463,600.898 z" fill="#C11D45"/>
      </g>
      <g>
        <path d="M509.448,413.758 L493.466,385.836 L497.61,373.13 L509.769,368.495 L522.214,373.161 L526.822,386.033 L509.448,413.758 z" fill="#CA43B5"/>
        <path d="M503.356,376.896 L516.955,376.913 L516.939,389.679 L503.34,389.662 L503.356,376.896 z" fill="#831972"/>
      </g>
      <g>
        <path d="M126.508,349.82 L109.308,321.775 L112.587,308.377 L124.141,302.897 L136.524,307.038 L141.768,320.12 L126.508,349.82 z" fill="#4499E2"/>
        <path d="M118.399,311.96 L131.629,311.22 L132.369,324.449 L119.139,325.189 L118.399,311.96 z" fill="#385DB5"/>
      </g>
      <g>
        <path d="M368.715,349.667 L348.201,311.6 L353.488,294.258 L369.053,287.914 L384.999,294.258 L390.92,311.811 L368.715,349.667 z" fill="#ECCB4A"/>
        <path d="M360.853,299.386 L378.269,299.386 L378.269,316.802 L360.853,316.802 L360.853,299.386 z" fill="#BCA031"/>
      </g>
    </g>
  </g>
</svg>
