<?xml version="1.0" encoding="UTF-8" standalone="no"?>
<svg width="188px" height="237px" viewBox="0 0 188 237" version="1.1" xmlns="http://www.w3.org/2000/svg" xmlns:xlink="http://www.w3.org/1999/xlink">
    <!-- Generator: Sketch 39.1 (31720) - http://www.bohemiancoding.com/sketch -->
    <title>Imported Layers</title>
    <desc>Created with Sketch.</desc>
    <defs></defs>
    <g id="Page-1" stroke="none" stroke-width="1" fill="none" fill-rule="evenodd">
        <g id="Desktop" transform="translate(-99.000000, -2007.000000)">
            <g id="Imported-Layers" transform="translate(99.500000, 2007.000000)">
                <path d="M28.36237,127.43411 C18.37379,127.43411 10.27643,119.3368 10.27643,109.3482 C10.27643,99.3596 18.37379,91.2622 28.36237,91.2622 C38.35096,91.2622 46.44831,99.3596 46.44831,109.3482 C46.44831,119.3368 38.35096,127.43411 28.36237,127.43411 L28.36237,127.43411 Z" id="Fill-1" fill="#FFFFFF"></path>
                <path d="M40.83541,109.3335 C32.00835,109.3335 24.8526,102.1778 24.8526,93.3507 C24.8526,84.5237 32.00835,77.3679 40.83541,77.3679 C49.66247,77.3679 56.81822,84.5237 56.81822,93.3507 C56.81822,102.1778 49.66247,109.3335 40.83541,109.3335 L40.83541,109.3335 Z" id="Fill-2" fill="#FFFFFF"></path>
                <path d="M63.62209,112.1023 C52.1109,112.1023 42.77923,102.7706 42.77923,91.2594 C42.77923,79.7482 52.1109,70.4165 63.62209,70.4165 C75.13329,70.4165 84.46496,79.7482 84.46496,91.2594 C84.46496,102.7706 75.13329,112.1023 63.62209,112.1023 L63.62209,112.1023 Z" id="Fill-3" fill="#FFFFFF"></path>
                <path d="M80.71734,127.58321 C70.68602,127.58321 62.55402,119.4512 62.55402,109.4199 C62.55402,99.3886 70.68602,91.2566 80.71734,91.2566 C90.74867,91.2566 98.88067,99.3886 98.88067,109.4199 C98.88067,119.4512 90.74867,127.58321 80.71734,127.58321 L80.71734,127.58321 Z" id="Fill-4" fill="#FFFFFF"></path>
                <path d="M31.73555,95.6597 L79.46885,95.6597 C83.2702,95.6597 86.3518,98.7413 86.3518,102.5426 L86.3518,120.7003 C86.3518,124.5016 83.2702,127.58322 79.46885,127.58322 L31.73555,127.58322 C27.93421,127.58322 24.85261,124.5016 24.85261,120.7003 L24.85261,102.5426 C24.85261,98.7413 27.93421,95.6597 31.73555,95.6597 L31.73555,95.6597 Z" id="Fill-5" fill="#FFFFFF"></path>
                <path d="M97.09018,80.9914 C85.35431,80.9914 75.84052,71.4776 75.84052,59.7418 C75.84052,48.0059 85.35431,38.4921 97.09018,38.4921 C108.826,38.4921 118.3398,48.0059 118.3398,59.7418 C118.3398,71.4776 108.826,80.9914 97.09018,80.9914 L97.09018,80.9914 Z" id="Fill-6" fill="#FFFFFF"></path>
                <path d="M111.7451,61.7246 C101.3739,61.7246 92.96644,53.3171 92.96644,42.946 C92.96644,32.5748 101.3739,24.1673 111.7451,24.1673 C122.1162,24.1673 130.5237,32.5748 130.5237,42.946 C130.5237,53.3171 122.1162,61.7246 111.7451,61.7246 L111.7451,61.7246 Z" id="Fill-7" fill="#FFFFFF"></path>
                <path d="M138.5178,64.9776 C124.993,64.9776 114.0289,54.0136 114.0289,40.4888 C114.0289,26.964 124.993,15.9999 138.5178,15.9999 C152.0426,15.9999 163.0066,26.964 163.0066,40.4888 C163.0066,54.0136 152.0426,64.9776 138.5178,64.9776 L138.5178,64.9776 Z" id="Fill-8" fill="#FFFFFF"></path>
                <path d="M158.6034,83.1666 C146.8174,83.1666 137.2629,73.6121 137.2629,61.826 C137.2629,50.0399 146.8174,40.4854 158.6034,40.4854 C170.3895,40.4854 179.944,50.0399 179.944,61.826 C179.944,73.6121 170.3895,83.1666 158.6034,83.1666 L158.6034,83.1666 Z" id="Fill-9" fill="#FFFFFF"></path>
                <path d="M101.0534,45.6588 L157.1366,45.6588 C161.6029,45.6588 165.2235,49.2795 165.2235,53.7458 L165.2235,75.0797 C165.2235,79.546 161.6029,83.1666 157.1366,83.1666 L101.0534,83.1666 C96.58711,83.1666 92.96646,79.546 92.96646,75.0797 L92.96646,53.7458 C92.96646,49.2795 96.58711,45.6588 101.0534,45.6588 L101.0534,45.6588 Z" id="Fill-10" fill="#FFFFFF"></path>
                <path d="M28.44311,67.5748 C16.70725,67.5748 7.193452,58.061 7.193452,46.3251 C7.193452,34.5892 16.70725,25.0755 28.44311,25.0755 C40.17898,25.0755 49.69277,34.5892 49.69277,46.3251 C49.69277,58.061 40.17898,67.5748 28.44311,67.5748 L28.44311,67.5748 Z" id="Fill-11" fill="#FFFFFF"></path>
                <path d="M43.09801,46.3079 C32.72686,46.3079 24.31938,37.9005 24.31938,27.5293 C24.31938,17.1581 32.72686,8.7507 43.09801,8.7507 C53.46917,8.7507 61.87665,17.1581 61.87665,27.5293 C61.87665,37.9005 53.46917,46.3079 43.09801,46.3079 L43.09801,46.3079 Z" id="Fill-12" fill="#FFFFFF"></path>
                <path d="M69.87071,49.561 C56.34589,49.561 45.38186,38.597 45.38186,25.0721 C45.38186,11.5473 56.34589,0.5833 69.87071,0.5833 C83.39553,0.5833 94.35956,11.5473 94.35956,25.0721 C94.35956,38.597 83.39553,49.561 69.87071,49.561 L69.87071,49.561 Z" id="Fill-13" fill="#FFFFFF"></path>
                <path d="M89.95638,67.75 C78.1703,67.75 68.6158,58.1954 68.6158,46.4094 C68.6158,34.6233 78.1703,25.0688 89.95638,25.0688 C101.7425,25.0688 111.297,34.6233 111.297,46.4094 C111.297,58.1954 101.7425,67.75 89.95638,67.75 L89.95638,67.75 Z" id="Fill-14" fill="#FFFFFF"></path>
                <path d="M32.40635,30.2422 L88.4895,30.2422 C92.9558,30.2422 96.57646,33.8628 96.57646,38.3291 L96.57646,59.663 C96.57646,64.1293 92.9558,67.75 88.4895,67.75 L32.40635,67.75 C27.94005,67.75 24.3194,64.1293 24.3194,59.663 L24.3194,38.3291 C24.3194,33.8628 27.94005,30.2422 32.40635,30.2422 L32.40635,30.2422 Z" id="Fill-15" fill="#FFFFFF"></path>
                <path d="M89.08466,159.49994 C83.33838,159.49993 40.32844,95.1835 40.32844,68.2562 C40.32844,41.3288 62.15734,19.4999 89.08466,19.4999 C116.012,19.4999 137.8409,41.3288 137.8409,68.2562 C137.8409,95.1835 94.1344,159.49995 89.08466,159.49994 L89.08466,159.49994 Z" id="Fill-16" fill="#D60A44"></path>
                <path d="M89.0846,159.4999 C83.3383,159.4999 40.3284,95.1834 40.3284,68.2561 C40.3284,41.3288 62.1573,19.4999 89.0846,19.4999 C116.0119,19.4999 137.8408,41.3288 137.8408,68.2561 C137.8408,95.1834 94.1344,159.4999 89.0846,159.4999 L89.0846,159.4999 Z" id="Stroke-17" stroke="#FFFFFF" stroke-width="4"></path>
                <path d="M108.8786,83.009 C110.1689,83.009 111.2734,83.4684 112.1922,84.3872 C113.111,85.306 113.5704,86.4106 113.5704,87.7008 C113.5704,88.991 113.0817,90.1444 112.1042,91.161 C106.044,96.4392 98.90862,99.0784 90.69802,99.0784 C81.62725,99.0784 73.88582,95.8723 67.47373,89.4602 C61.06164,83.0481 57.85559,75.3067 57.85559,66.2359 C57.85559,57.1652 61.06164,49.4237 67.47373,43.0116 C73.88582,36.5995 81.62725,33.3935 90.69802,33.3935 C98.90862,33.3935 106.044,36.0326 112.1042,41.3109 C113.199,42.2883 113.7464,43.5004 113.7464,44.947 C113.7464,46.2372 113.287,47.3418 112.3682,48.2606 C111.4493,49.1794 110.3448,49.6388 109.0546,49.6388 C107.9207,49.6388 106.9237,49.2869 106.0636,48.5831 C101.6846,44.7124 96.56274,42.777 90.69802,42.777 C84.20773,42.777 78.67534,45.0643 74.10086,49.6388 C69.52638,54.2132 67.23914,59.7456 67.23914,66.2359 C67.23914,72.7262 69.52638,78.2586 74.10086,82.8331 C78.67534,87.4076 84.20773,89.6948 90.69802,89.6948 C96.56274,89.6948 101.665,87.779 106.0049,83.9474 C106.826,83.3218 107.7839,83.009 108.8786,83.009 L108.8786,83.009 Z" id="Fill-18" fill="#FFFFFF"></path>
                <path d="M0,196.375 C0,195.51562 0.3059896,194.77995 0.9179688,194.16797 C1.529948,193.55599 2.265625,193.25 3.125,193.25 C3.984375,193.25 4.720052,193.55599 5.332031,194.16797 C5.94401,194.77995 6.25,195.51563 6.25,196.375 L6.25,198.91406 C10.15625,195.13802 14.84375,193.25 20.3125,193.25 C25.91146,193.25 30.69661,195.23568 34.66797,199.20703 C38.63932,203.17839 40.625,207.96354 40.625,213.5625 L40.625,233.875 C40.625,234.734375 40.31901,235.470052 39.70703,236.082031 C39.09505,236.69401 38.35937,237 37.5,237 C36.64062,237 35.90495,236.69401 35.29297,236.082031 C34.68099,235.470052 34.375,234.734375 34.375,233.875 L34.375,213.5625 C34.375,209.68229 33.0013,206.36849 30.25391,203.62109 C27.50651,200.8737 24.19271,199.5 20.3125,199.5 C16.43229,199.5 13.11849,200.8737 10.37109,203.62109 C7.623698,206.36849 6.25,209.68229 6.25,213.5625 L6.25,233.875 C6.25,234.734375 5.94401,235.470052 5.332031,236.082031 C4.720052,236.69401 3.984375,237 3.125,237 C2.265625,237 1.529948,236.69401 0.9179688,236.082031 C0.3059896,235.470052 0,234.734375 0,233.875 L0,196.375 Z" id="Fill-19" fill="#FFFFFF"></path>
                <path d="M87.5,233.875 C87.5,234.734375 87.19401,235.470052 86.58203,236.082031 C85.97005,236.69401 85.23437,237 84.375,237 C83.51562,237 82.77995,236.69401 82.16797,236.082031 C81.55599,235.470052 81.25,234.734375 81.25,233.875 L81.25,231.335938 C77.34375,235.111979 72.65625,237 67.1875,237 C61.58854,237 56.80339,235.014323 52.83203,231.042969 C48.86068,227.071614 46.875,222.28646 46.875,216.6875 L46.875,196.375 C46.875,195.51562 47.18099,194.77995 47.79297,194.16797 C48.40495,193.55599 49.14063,193.25 50,193.25 C50.85938,193.25 51.59505,193.55599 52.20703,194.16797 C52.81901,194.77995 53.125,195.51563 53.125,196.375 L53.125,216.6875 C53.125,220.56771 54.4987,223.88151 57.24609,226.62891 C59.99349,229.376302 63.30729,230.75 67.1875,230.75 C71.06771,230.75 74.38151,229.376302 77.12891,226.62891 C79.8763,223.88151 81.25,220.56771 81.25,216.6875 L81.25,196.375 C81.25,195.51562 81.55599,194.77995 82.16797,194.16797 C82.77995,193.55599 83.51563,193.25 84.375,193.25 C85.23438,193.25 85.97005,193.55599 86.58203,194.16797 C87.19401,194.77995 87.5,195.51563 87.5,196.375 L87.5,233.875 Z" id="Fill-20" fill="#FFFFFF"></path>
                <path d="M115.625,230.75 C119.9479,230.75 123.6328,229.226562 126.6797,226.17969 C129.7266,223.13281 131.25,219.44792 131.25,215.125 C131.25,210.80208 129.7266,207.11719 126.6797,204.07031 C123.6328,201.02344 119.9479,199.5 115.625,199.5 C111.3021,199.5 107.6172,201.02344 104.5703,204.07031 C101.5234,207.11719 100,210.80208 100,215.125 C100,219.44792 101.5234,223.13281 104.5703,226.17969 C107.6172,229.226563 111.3021,230.75 115.625,230.75 L115.625,230.75 Z M100,199.8125 C100.0521,199.76042 100.1042,199.70833 100.1562,199.65625 C104.4271,195.38542 109.5833,193.25 115.625,193.25 C121.6667,193.25 126.8229,195.38542 131.0938,199.65625 C135.3646,203.92708 137.5,209.08333 137.5,215.125 C137.5,221.16667 135.3646,226.32292 131.0938,230.59375 C126.8229,234.864583 121.6667,237 115.625,237 C109.5833,237 104.4271,234.864583 100.1562,230.59375 C95.88542,226.32292 93.75,221.16667 93.75,215.125 L93.75,177.54688 C93.75,176.6875 94.05599,175.95182 94.66797,175.33984 C95.27995,174.72786 96.01563,174.42187 96.875,174.42188 C97.73438,174.42188 98.47005,174.72786 99.08203,175.33984 C99.69401,175.95182 100,176.6875 100,177.54688 L100,199.8125 Z" id="Fill-21" fill="#FFFFFF"></path>
                <path d="M180.9766,212 C180.4036,209.00521 178.9714,206.36198 176.6797,204.07031 C173.6328,201.02344 169.9479,199.5 165.625,199.5 C161.3021,199.5 157.6172,201.02344 154.5703,204.07031 C152.2786,206.36198 150.8464,209.00521 150.2734,212 L180.9766,212 Z M177.6562,226.375 C178.5156,226.375 179.2513,226.68099 179.8633,227.292969 C180.4753,227.904948 180.7813,228.640625 180.7812,229.5 C180.7812,230.359375 180.4818,231.101563 179.8828,231.726562 C175.8464,235.242188 171.0937,237 165.625,237 C159.5833,237 154.4271,234.864583 150.1562,230.59375 C145.8854,226.32292 143.75,221.16667 143.75,215.125 C143.75,209.08333 145.8854,203.92708 150.1562,199.65625 C154.4271,195.38542 159.5833,193.25 165.625,193.25 C171.6667,193.25 176.8229,195.38542 181.0938,199.65625 C185.3646,203.92708 187.5,209.08333 187.5,215.125 C187.5,215.98438 187.194,216.72005 186.582,217.33203 C185.9701,217.94401 185.2344,218.25 184.375,218.25 L150.2734,218.25 C150.8464,221.24479 152.2786,223.88802 154.5703,226.17969 C157.6172,229.226563 161.3021,230.75 165.625,230.75 C169.5313,230.75 172.8906,229.513021 175.7031,227.039062 C176.276,226.59635 176.9271,226.375 177.6562,226.375 L177.6562,226.375 Z" id="Fill-22" fill="#FFFFFF"></path>
            </g>
        </g>
    </g>
</svg>