<?xml version="1.0" encoding="UTF-8" standalone="no"?>
<svg width="245px" height="116px" viewBox="0 0 245 116" version="1.1" xmlns="http://www.w3.org/2000/svg" xmlns:xlink="http://www.w3.org/1999/xlink">
    <!-- Generator: Sketch 39.1 (31720) - http://www.bohemiancoding.com/sketch -->
    <title>Imported Layers</title>
    <desc>Created with Sketch.</desc>
    <defs></defs>
    <g id="Page-1" stroke="none" stroke-width="1" fill="none" fill-rule="evenodd">
        <g id="Desktop" transform="translate(-708.000000, -2128.000000)">
            <g id="Imported-Layers" transform="translate(708.000000, 2128.000000)">
                <path d="M68.5931419,81.7045443 C68.5931419,91.1766218 65.2451426,99.2605504 58.5491441,105.95633 C51.8531456,112.652109 43.768953,115.999999 34.2965663,115.999998 C24.8241795,115.999998 16.7399962,112.652109 10.0439977,105.95633 C3.34799831,99.2605504 0,91.1766218 0,81.7045443 C0,72.2324669 3.34799831,64.1485475 10.0439977,57.4527677 C16.7399962,50.7569878 24.8241888,47.4090979 34.2965663,47.4090979 C43.768953,47.4090979 51.8531456,50.7569878 58.5491441,57.4527677 C65.2451426,64.1485475 68.5931419,72.2324762 68.5931419,81.7045443 L68.5931419,81.7045443 Z M34.2965663,55.003089 C26.9473087,55.003089 20.6595972,57.6160771 15.4334595,62.8420534 C10.2073125,68.0680205 7.59423994,74.3555267 7.59424087,81.7045443 C7.59424087,89.0535712 10.2073125,95.3410774 15.4334595,100.567044 C20.6595972,105.793021 26.9473087,108.406006 34.2965663,108.406006 C41.6458331,108.406006 47.9335354,105.793021 53.1596824,100.567044 C58.344996,95.3819002 60.9376528,89.0944032 60.9376528,81.7045443 C60.9376528,74.3146947 58.344996,68.0271978 53.1596824,62.8420534 C47.9335354,57.6160771 41.6458331,55.003089 34.2965663,55.003089 L34.2965663,55.003089 Z" id="Fill-1" fill="#383838"></path>
                <path d="M132.409229,101.118221 C133.470803,101.118221 134.369044,101.49588 135.103951,102.251197 C135.838951,103.006515 136.206358,103.914934 136.206358,104.976464 C136.206358,106.037985 135.818534,106.956615 135.042701,107.732345 C131.939739,110.38616 128.4896,112.427556 124.692564,113.856533 C120.895436,115.28551 116.89414,115.999999 112.688771,115.999998 C103.216366,115.999998 95.132108,112.652109 88.4361466,105.95633 C81.7401574,99.2605504 78.3921581,91.1766218 78.3921581,81.7045443 C78.3921581,72.2324669 81.7401574,64.1485475 88.4361466,57.4527677 C95.132108,50.7569878 103.216366,47.4090979 112.688771,47.4090979 C116.89414,47.4090979 120.905644,48.1235837 124.723189,49.5525645 C128.540642,50.9815453 131.980572,53.0229411 135.042701,55.676752 C135.410201,56.0442029 135.726659,56.4933085 135.991983,57.0240688 C136.2574,57.5548384 136.390108,58.1060147 136.390108,58.677607 C136.390108,59.7391277 136.022608,60.6373389 135.287701,61.3722499 C134.552794,62.1071517 133.654553,62.4746026 132.592979,62.4746026 C131.613072,62.4746026 130.796498,62.1683904 130.143258,61.5559754 C125.162055,57.1873875 119.343862,55.003089 112.688771,55.003089 C105.33942,55.003089 99.0517367,57.6160771 93.8256269,62.8420534 C88.6402947,68.0271978 86.0476379,74.3146947 86.0476379,81.7045443 C86.0476379,89.0944032 88.6402947,95.3819002 93.8256269,100.567044 C99.0517367,105.793021 105.33942,108.406006 112.688771,108.406006 C115.914233,108.406006 119.027496,107.814002 122.028375,106.629993 C125.029347,105.445986 127.734277,103.853696 130.143258,101.853123 C130.755665,101.363194 131.510989,101.118221 132.409229,101.118221 L132.409229,101.118221 Z" id="Fill-2" fill="#383838"></path>
                <path d="M161.377602,30.8737898 C161.377602,32.3027706 160.887695,33.5071939 159.907788,34.4870598 C158.927881,35.466935 157.72339,35.9568726 156.294409,35.9568726 C154.906169,35.9568726 153.711886,35.466935 152.711562,34.4870598 C151.711239,33.5071939 151.211123,32.3027706 151.211123,30.8737898 C151.211123,29.485641 151.711239,28.2914256 152.711562,27.2911437 C153.711886,26.2908618 154.906169,25.7907162 156.294409,25.7907162 C157.72339,25.7907162 158.927881,26.2908618 159.907788,27.2911437 C160.887695,28.2914256 161.377602,29.485641 161.377602,30.8737898 L161.377602,30.8737898 Z M152.49728,51.2060934 C152.49728,50.1445728 152.864687,49.2463523 153.599595,48.5114506 C154.334595,47.7765488 155.232835,47.4090979 156.294409,47.4090979 C157.35589,47.4090979 158.264339,47.7765488 159.019756,48.5114506 C159.77508,49.2463523 160.152695,50.1445728 160.152695,51.2060934 L160.152695,112.203004 C160.152695,113.26453 159.77508,114.162744 159.019756,114.897646 C158.264339,115.632549 157.35589,116 156.294409,116 C155.232835,116 154.334595,115.632549 153.599595,114.897646 C152.864687,114.162744 152.49728,113.26453 152.49728,112.203004 L152.49728,51.2060934 Z" id="Fill-3" fill="#383838"></path>
                <path d="M244.9755,81.7045443 C244.9755,91.1766218 241.627538,99.2605504 234.931521,105.95633 C228.235504,112.652109 220.151339,115.999999 210.678934,115.999998 C201.206528,115.999998 193.122364,112.652109 186.426347,105.95633 C179.73033,99.2605504 176.382367,91.1766218 176.382367,81.7045443 C176.382367,72.2324669 179.73033,64.1485475 186.426347,57.4527677 C193.122364,50.7569878 201.206528,47.4090979 210.678934,47.4090979 C220.151339,47.4090979 228.235504,50.7569878 234.931521,57.4527677 C241.627538,64.1485475 244.9755,72.2324762 244.9755,81.7045443 L244.9755,81.7045443 Z M210.678934,55.003089 C203.329676,55.003089 197.041992,57.6160771 191.81579,62.8420534 C186.58968,68.0680205 183.976625,74.3555267 183.976625,81.7045443 C183.976625,89.0535712 186.58968,95.3410774 191.81579,100.567044 C197.041992,105.793021 203.329676,108.406006 210.678934,108.406006 C218.028191,108.406006 224.315875,105.793021 229.542078,100.567044 C234.727354,95.3819002 237.319992,89.0944032 237.319992,81.7045443 C237.319992,74.3146947 234.727354,68.0271978 229.542078,62.8420534 C224.315875,57.6160771 218.028191,55.003089 210.678934,55.003089 L210.678934,55.003089 Z" id="Fill-4" fill="#FFFFFF"></path>
                <path d="M157.055672,41.0048771 C155.383733,41.0048678 142.869152,22.2913952 142.869152,14.4566624 C142.869152,6.6219296 149.220684,0.2706048 157.055672,0.2706048 C164.890661,0.2706048 171.242193,6.6219296 171.242193,14.4566624 C171.242193,22.2913952 158.525023,41.0048771 157.055672,41.0048771 L157.055672,41.0048771 Z" id="Fill-5" fill="#FFFFFF"></path>
                <path d="M162.496621,19.699584 C162.872009,19.699584 163.193386,19.833216 163.460752,20.1005728 C163.728117,20.3678368 163.861754,20.689296 163.861754,21.064672 C163.861754,21.440048 163.71958,21.7756128 163.435138,22.0714592 C161.671788,23.6071786 159.595598,24.3750614 157.20657,24.3750614 C154.567345,24.3750614 152.31483,23.4422358 150.449025,21.5765568 C148.583313,19.7109056 147.650456,17.458464 147.650456,14.819232 C147.650456,12.18 148.583313,9.9275584 150.449025,8.0619072 C152.31483,6.196256 154.567345,5.2634304 157.20657,5.2634304 C159.595598,5.2634304 161.671788,6.0313504 163.435138,7.5670976 C163.753731,7.8514368 163.912981,8.2041696 163.912981,8.6250176 C163.912981,9.0004864 163.779252,9.3218528 163.511979,9.5891168 C163.244614,9.8564736 162.923237,9.9901984 162.547756,9.9901984 C162.217841,9.9901984 161.927739,9.8877472 161.677542,9.6830304 C160.403356,8.5568096 158.913032,7.9936992 157.20657,7.9936992 C155.318121,7.9936992 153.70836,8.659168 152.377379,9.9901984 C151.046305,11.321136 150.380814,12.9308448 150.380814,14.819232 C150.380814,16.7076192 151.046305,18.317328 152.377379,19.6483584 C153.70836,20.979296 155.318121,21.6448576 157.20657,21.6448576 C158.913032,21.6448576 160.397695,21.087408 161.660466,19.9726016 C161.899341,19.790528 162.178028,19.699584 162.496621,19.699584 L162.496621,19.699584 Z" id="Fill-7" fill="#D62343"></path>
            </g>
        </g>
    </g>
</svg>