<?xml version="1.0" encoding="UTF-8" standalone="no"?>
<svg width="1024px" height="429px" viewBox="0 0 1024 429" version="1.1" xmlns="http://www.w3.org/2000/svg" xmlns:xlink="http://www.w3.org/1999/xlink">
    <!-- Generator: Sketch 39.1 (31720) - http://www.bohemiancoding.com/sketch -->
    <title>Page 1</title>
    <desc>Created with Sketch.</desc>
    <defs>
        <rect id="path-1" x="0" y="0" width="1325" height="567"></rect>
        <rect id="path-3" x="0" y="0" width="1165" height="718"></rect>
    </defs>
    <g id="Page-1" stroke="none" stroke-width="1" fill="none" fill-rule="evenodd">
        <g id="Desktop" transform="translate(0.000000, -1303.000000)">
            <g id="Page-1" transform="translate(-167.000000, 1165.000000)">
                <mask id="mask-2" fill="white">
                    <use xlink:href="#path-1"></use>
                </mask>
                <g id="Mask"></g>
                <g opacity="0.569671175" mask="url(#mask-2)">
                    <g transform="translate(116.000000, -11.000000)">
                        <mask id="mask-4" fill="white">
                            <use xlink:href="#path-3"></use>
                        </mask>
                        <g id="Mask" stroke="none" fill="none"></g>
                        <g id="Page-1" stroke="none" stroke-width="1" fill="none" fill-rule="evenodd" mask="url(#mask-4)">
                            <g transform="translate(-6.826172, 149.061807)">
                                <path d="M545.074114,1175.18098 C429.800006,1162.96807 308.241012,1121.18177 308.241012,1121.18177 L191.47355,1044.94119 L81.0016401,916.166943 L14.8247359,756.916944 C14.8247359,756.916944 0,673.781665 0,630.133031 L0,630.133031 L0,630.133031 C13.1777801,510.474206 43.4843275,416.444368 43.4843275,416.444368 L125.65505,281.999917 L305.902846,140.219185 L545.074114,85.0850785 L738.284221,127.428158 L944.435304,259.178301 C944.435304,259.178301 1049.77008,436.351951 1055.02668,437.226587 C1060.28115,438.099091 1090.14823,562.212163 1090.14823,630.133031 L1090.14823,630.133031 L1062.13291,803.091359 L1012.18876,911.187914 C904.995832,1042.27675 825.513146,1097.60285 825.513146,1097.60285 L703.476279,1151.80899 L545.074114,1175.18098 L545.074114,1175.18098 L545.074114,1175.18098 Z" id="Fill-1" fill="#FFC8DB"></path>
                                <path d="M364.450846,374.101288 L405.695143,366.991132 L414.939003,352.058312 L410.672278,348.502167 L403.561781,351.345803 L402.851371,334.992231 L400.718009,321.480162 L392.184559,320.05941 L404.272191,307.25985 L395.028331,302.99333 L402.138828,292.327029 L391.472016,295.881041 L381.517746,308.680601 L378.671841,319.346902 L385.071928,322.903046 L378.671841,345.658532 L367.294619,357.745583 L375.117659,359.878843 L365.161256,370.545144 L364.450846,374.101288 L364.450846,374.101288 Z" id="Fill-6" fill="#FFBAB8"></path>
                                <path d="M340.271316,358.458092 L364.450846,349.925052 L372.984296,329.302826 L364.450846,322.903046 L350.227719,331.436087 L340.271316,358.458092 L340.271316,358.458092 Z" id="Fill-7" fill="#FFBBD8"></path>
                                <path d="M257.782722,235.439383 L340.271316,198.463586 L531.56353,131.620014 L536.540664,139.442679 L565.697329,120.953714 L584.897592,125.932743 L623.298117,99.6211128 L560.007652,76.8677607 L478.229468,80.421772 L380.805203,106.733402 L364.450846,146.552835 L272.003717,198.463586 L257.782722,235.439383 L257.782722,235.439383 Z" id="Fill-8" fill="#FFBBD8"></path>
                                <path d="M255.534158,179.240779 L220.092607,208.393911 L232.182372,210.527171 L185.248398,248.925853 L188.80258,253.904882 L182.402492,270.258454 L156.802142,310.790395 L144.714511,317.902685 L139.024833,302.257355 C153.95837,287.324534 159.648048,279.504003 159.648048,279.504003 L146.13533,269.548078 C146.13533,269.548078 129.06843,297.990835 129.06843,298.703344 C129.06843,299.413719 132.624745,309.369644 131.914336,310.790395 L104.180623,311.502904 L118.401618,287.324534 L144.001968,255.325633 L216.536292,199.150495 L255.534158,179.240779 L255.534158,179.240779 Z" id="Fill-9" fill="#FF9592"></path>
                                <path d="M464.718883,436.819135 L477.519058,442.365611 L481.785783,462.275327 L503.119408,475.074888 L523.03008,497.830373 L523.03008,509.207049 L537.253208,490.720217 L530.140577,482.187177 L541.519932,485.030813 L523.03008,465.121096 L503.119408,446.632131 L491.740052,432.409686 L498.852683,423.876646 C498.852683,423.876646 480.729769,412.551168 461.774843,400.705175 L464.718883,436.819135 L464.718883,436.819135 Z" id="Fill-13" fill="#FF9592"></path>
                                <polygon id="Fill-14" fill="#FF8073" points="463.554067 400.705175 459.385477 349.925052 476.719047 346.144915 473.962743 327.122635 476.806515 311.479438 483.919145 320.012479 483.919145 338.501444 506.052781 341.035757 493.252606 381.567699"></polygon>
                                <polygon id="Fill-15" fill="#FFB4D0" points="461.774843 400.705175 501.873524 374.101288 514.140358 409.033422 498.852683 423.876646"></polygon>
                                <polygon id="Fill-16" fill="#FFBBD8" points="491.82752 380.635464 504.273557 341.035757 523.384218 335.655675 531.917668 342.767964 501.873524 374.101288"></polygon>
                                <polygon id="Fill-18" fill="#E2A1BD" points="526.008254 399.967067 514.140358 409.033422 498.852683 423.876646 548.984568 466.497049 561.714342 427.567186"></polygon>
                                <polygon id="Fill-19" fill="#FF6E67" points="514.140358 409.033422 501.873524 374.101288 531.917668 342.767964 550.405387 331.389155 545.074114 385.620893"></polygon>
                                <polygon id="Fill-20" fill="#F07E98" points="545.074114 385.620893 551.82834 307.212918 575.367862 326.316262"></polygon>
                                <polygon id="Fill-21" fill="#FF6E67" points="558.300962 436.819135 580.272462 479.29661 630.941954 465.69921 563.847704 420.606358"></polygon>
                                <polygon id="Fill-22" fill="#FFA88B" points="526.008254 399.967067 545.074114 385.620893 574.674519 394.900574 561.714342 427.567186"></polygon>
                                <polygon id="Fill-23" fill="#FFBAB8" points="457.606253 349.925052 464.718883 436.819135 430.585083 372.678404"></polygon>
                                <path d="M503.652748,276.824628 L493.606744,261.704081 L460.895898,273.080757 L460.895898,287.303202 L492.734199,307.942493 L503.652748,276.824628 L503.652748,276.824628 Z" id="Fill-24" fill="#FF8073"></path>
                                <polygon id="Fill-25" fill="#FFB4D0" points="506.050648 328.545519 523.117548 320.012479 531.917668 292.327029 504.273557 268.71824 490.954975 307.942493"></polygon>
                                <polygon id="Fill-26" fill="#FFA88B" points="514.140358 235.439383 491.82752 261.704081 501.873524 276.824628"></polygon>
                                <polygon id="Fill-27" fill="#F77F76" points="535.917723 204.816434 513.944089 234.16796 504.273557 268.71824 531.917668 292.327029 553.695032 252.458532"></polygon>
                                <polygon id="Fill-28" fill="#FFA88B" points="561.714342 220.506562 551.56167 201.972798 535.917723 204.816434 553.695032 252.458532"></polygon>
                                <polygon id="Fill-29" fill="#F6ADBD" points="612.718772 213.349474 604.541594 238.372615 615.562544 237.525711 624.095994 224.726151"></polygon>
                                <polygon id="Fill-30" fill="#F89F95" points="586.053874 213.349474 598.480711 264.45172 614.497996 213.349474"></polygon>
                                <polygon id="Fill-31" fill="#F89F95" points="553.340894 201.972798 586.053874 213.349474 575.788134 247.385639"></polygon>
                                <polygon id="Fill-32" fill="#FFB4D0" points="551.56167 282.324173 553.695032 252.458532 561.283403 221.974245 574.00891 247.385639 574.00891 298.014301"></polygon>
                                <path d="M574.00891,247.385639 L592.409161,244.399075 L584.272517,213.349474 L574.00891,247.385639 L574.00891,247.385639 Z" id="Fill-33" fill="#FFBBD8"></path>
                                <polygon id="Fill-34" fill="#FFA88B" points="424.895406 445.209247 437.783048 450.85172 464.718883 436.819135 442.672715 394.153933"></polygon>
                                <polygon id="Fill-35" fill="#FFB4D0" points="395.384602 381.211444 417.998245 379.647764 432.364308 372.678404 444.45194 394.153933 426.67463 445.209247"></polygon>
                                <polygon id="Fill-36" fill="#FFBBD8" points="403.845518 400.705175 380.805203 446.275877 424.895406 445.209247"></polygon>
                                <polygon id="Fill-37" fill="#FFBAB8" points="393.605378 381.211444 378.048899 393.966206 387.205291 433.785639 403.845518 400.705175"></polygon>
                                <polygon id="Fill-41" fill="#E7C2D0" points="634.675339 204.816434 680.986371 219.038879 617.075098 253.173174"></polygon>
                                <polygon id="Fill-42" fill="#F57EAB" points="566.407739 318.903184 574.00891 298.014301 574.00891 247.385639 592.409161 244.399075 596.701486 264.45172 605.606141 285.172075 575.367862 326.316262"></polygon>
                                <polygon id="Fill-43" fill="#FFB7B7" points="604.541594 238.372615 624.418132 261.704081 612.718772 301.523514 596.701486 264.45172"></polygon>
                                <polygon id="Fill-49" fill="#FFA88B" points="698.053271 210.505839 761.256268 169.30832 695.832441 150.108979"></polygon>
                                <polygon id="Fill-50" fill="#FF6E67" points="865.611827 189.930545 918.500017 228.992671 850.812692 253.173174"></polygon>
                                <polygon id="Fill-51" fill="#F57EAB" points="995.213598 312.236746 1027.21404 372.678404 1025.79322 416.76649 989.526054 385.620893"></polygon>
                                <polygon id="Fill-52" fill="#F57EAB" points="757.699953 437.708704 797.52343 390.634054 772.63349 336.545244 743.476825 380.857323"></polygon>
                                <polygon id="Fill-53" fill="#FFA88B" points="686.588581 326.316262 752.722818 280.94822 688.009401 280.94822 673.910008 281.660729"></polygon>
                                <polygon id="Fill-54" fill="#FFB4D0" points="564.142108 421.165272 578.497504 385.620893 661.698641 432.055565 630.941954 465.697077"></polygon>
                                <polygon id="Fill-56" fill="#E7C2D0" points="545.074114 385.620893 575.367862 326.316262 623.298117 335.655675 574.674519 394.900574"></polygon>
                                <path d="M575.367862,326.316262 L605.606141,284.504365 C605.606141,284.504365 642.363977,343.036755 643.07652,343.036755 C643.78693,343.036755 575.367862,326.316262 575.367862,326.316262 L575.367862,326.316262 Z" id="Fill-58" fill="#F77F76"></path>
                                <polygon id="Fill-69" fill="#FF9592" points="1027.21404 372.678404 1024.01399 466.497049 1057.87899 463.65128 1056.45817 432.055565"></polygon>
                                <polygon id="Fill-71" fill="#FFB7B7" points="969.079908 276.824628 995.213598 312.236746 989.526054 385.620893 979.881122 359.569521 961.2142 287.970912"></polygon>
                                <polygon id="Fill-72" fill="#FF6E67" points="918.500017 228.992671 969.079908 276.824628 951.614069 301.523514"></polygon>
                                <polygon id="Fill-74" fill="#FFBAB8" points="996.636551 391.700684 995.213598 466.497049 1024.01399 466.497049 1025.79322 416.76649"></polygon>
                                <polygon id="Fill-75" fill="#E2A1BD" points="617.075098 253.173174 666.142435 226.373027 688.009401 280.94822 654.408942 284.504365 624.418132 261.704081"></polygon>
                                <polygon id="Fill-76" fill="#FF8073" points="644.284003 343.036755 615.25534 297.171663 626.197356 261.704081 656.188166 284.504365"></polygon>
                                <polygon id="Fill-77" fill="#FF9592" points="581.209008 386.900849 621.875164 337.302552 643.07652 343.036755 620.008472 409.033422"></polygon>
                                <polygon id="Fill-78" fill="#FFB7B7" points="654.408942 284.504365 674.675885 282.5055 688.009401 331.389155 673.910008 349.925052 642.498379 342.102387"></polygon>
                                <polygon id="Fill-79" fill="#E2A1BD" points="620.008472 409.033422 636.00869 363.434988 692.276126 373.435711 685.165629 416.76649 661.698641 432.055565"></polygon>
                                <polygon id="Fill-80" fill="#FFB7B7" points="716.276454 469.29802 749.343572 446.275877 695.832441 409.033422 661.698641 432.055565"></polygon>
                                <polygon id="Fill-81" fill="#FFBAB8" points="636.00869 363.434988 642.498379 342.102387 710.409707 358.458092 695.832441 374.101288"></polygon>
                                <polygon id="Fill-84" fill="#E2A1BD" points="729.076629 459.965007 773.877241 420.606358 802.677634 440.232351 752.722818 474.364512"></polygon>
                                <polygon id="Fill-85" fill="#FFB4D0" points="714.010823 421.832983 742.811216 379.302176 756.810341 435.432516 746.811271 444.366609"></polygon>
                                <polygon id="Fill-86" fill="#F57EAB" points="685.165629 417.656059 695.832441 409.922992 714.010823 386.510462 695.832441 374.990858 692.276126 374.325281"></polygon>
                                <polygon id="Fill-87" fill="#FFA88B" points="715.790047 421.832983 751.122796 370.368083 736.056991 357.83518 697.611665 409.033422"></polygon>
                                <polygon id="Fill-88" fill="#FFB4D0" points="666.142435 226.373027 719.743168 196.375124 729.076629 280.94822 688.009401 280.94822"></polygon>
                                <polygon id="Fill-89" fill="#FFB7B7" points="695.832441 150.108979 685.165629 109.530106 761.256268 135.709474 720.67758 157.443127"></polygon>
                                <polygon id="Fill-90" fill="#FF6E67" points="773.3439 173.57484 720.67758 157.443127 761.256268 135.709474 808.98812 150.774556"></polygon>
                                <polygon id="Fill-91" fill="#FFBBD8" points="865.611827 189.930545 808.98812 150.774556 773.3439 173.57484"></polygon>
                                <polygon id="Fill-92" fill="#E2A1BD" points="726.409925 256.505326 718.943157 196.641781 760.678127 169.709373 773.3439 173.57484 743.476825 229.572917"></polygon>
                                <polygon id="Fill-93" fill="#E2A1BD" points="812.544436 180.507935 865.611827 189.930545 855.478356 233.17386"></polygon>
                                <polygon id="Fill-94" fill="#FFB7B7" points="871.478574 244.399075 918.500017 228.992671 935.08051 264.45172 927.658542 284.504365"></polygon>
                                <polygon id="Fill-95" fill="#FFB4D0" points="936.8128 487.164073 947.212942 471.697937 959.479777 446.275877 927.658542 423.876646 894.518889 406.10019 908.279077 436.819135"></polygon>
                                <polygon id="Fill-96" fill="#FF9592" points="989.526054 385.620893 996.636551 391.700684 995.213598 466.497049 947.212942 471.697937"></polygon>
                                <polygon id="Fill-97" fill="#FFA88B" points="935.08051 264.45172 904.759029 338.369182 922.145933 335.655675 963.614233 326.316262"></polygon>
                                <path d="M961.346469,287.305335 L979.881122,359.569521 L951.614069,301.523514 C951.614069,301.523514 961.346469,288.371965 961.346469,287.305335 L961.346469,287.305335 Z" id="Fill-98" fill="#F57EAB"></path>
                                <polygon id="Fill-99" fill="#FFBBD8" points="922.145933 335.655675 963.614233 326.316262 980.813402 361.301728 989.526054 385.620893 975.479995 414.099915"></polygon>
                                <polygon id="Fill-100" fill="#FF4437" points="927.658542 423.876646 940.812855 362.901673 975.479995 414.099915 959.479777 446.275877"></polygon>
                                <polygon id="Fill-104" fill="#FFB4D0" points="714.010823 385.620893 734.277766 357.83518 718.943157 344.768962 695.832441 374.101288"></polygon>
                                <polygon id="Fill-105" fill="#F57EAB" points="729.076629 281.83779 726.409925 256.594923 743.476825 229.88224 775.05059 256.594923 752.722818 281.83779"></polygon>
                                <polygon id="Fill-106" fill="#FFB7B7" points="757.699953 200.027265 794.011916 200.027265 826.677962 197.574016 812.544436 180.507935 773.3439 173.57484"></polygon>
                                <polygon id="Fill-107" fill="#FF8073" points="830.678017 261.704081 873.257799 244.399075 929.437766 284.504365 860.884296 289.3042"></polygon>
                                <polygon id="Fill-108" fill="#FFB4D0" points="824.5446 290.637487 927.658542 284.504365 904.759029 338.369182"></polygon>
                                <polygon id="Fill-109" fill="#FF8073" points="675.689232 349.925052 689.788625 331.389155 720.722381 344.768962 710.588909 357.83518"></polygon>
                                <polygon id="Fill-110" fill="#FF8073" points="901.418183 363.968303 906.538253 338.369182 923.925158 335.655675 943.39209 363.434988"></polygon>
                                <polygon id="Fill-111" fill="#FFB7B7" points="894.518889 406.10019 899.638959 363.968303 940.812855 363.434988 927.658542 423.876646"></polygon>
                                <path d="M878.945343,452.605259 L908.279077,436.819135 L894.518889,406.10019 L878.945343,440.659003 L878.945343,452.605259 L878.945343,452.605259 Z" id="Fill-112" fill="#FFA88B"></path>
                                <polygon id="Fill-113" fill="#FF6E67" points="775.05059 255.705353 794.677525 200.027265 757.699953 200.027265 743.476825 228.992671"></polygon>
                                <polygon id="Fill-114" fill="#FFB7B7" points="826.677962 197.574016 856.146098 232.373888 850.812692 253.173174 828.898792 261.704081"></polygon>
                                <polygon id="Fill-115" fill="#FF8073" points="776.829814 255.705353 796.456749 200.027265 828.457186 197.574016 830.678017 235.439383"></polygon>
                                <path d="M775.05059,255.705353 L828.898792,235.439383 L828.898792,261.704081 L804.145388,284.504365 L775.05059,255.705353 L775.05059,255.705353 Z" id="Fill-116" fill="#FF9592"></path>
                                <polygon id="Fill-117" fill="#FF9592" points="865.611827 315.169978 904.759029 338.369182 899.638959 363.968303 857.398382 349.925052"></polygon>
                                <polygon id="Fill-118" fill="#E7C2D0" points="847.388645 468.675108 878.945343 445.209247 878.945343 427.567186 839.90481 433.785639 819.078925 451.566362"></polygon>
                                <polygon id="Fill-119" fill="#E8AB9D" points="857.398382 349.925052 899.638959 363.968303 894.518889 406.10019 855.478356 379.967753"></polygon>
                                <polygon id="Fill-120" fill="#FFB4D0" points="878.945343 440.659003 878.091998 393.833944 894.518889 406.10019"></polygon>
                                <polygon id="Fill-121" fill="#F28E87" points="839.90481 433.785639 878.945343 427.567186 878.091998 393.833944 855.478356 379.967753"></polygon>
                                <polygon id="Fill-122" fill="#FFA88B" points="808.98812 433.785639 825.07794 446.275877 839.90481 433.785639 848.011587 405.566875 828.898792 416.76649"></polygon>
                                <polygon id="Fill-123" fill="#FFA88B" points="839.90481 347.648863 857.398382 349.925052 865.611827 315.169978 839.90481 299.838238"></polygon>
                                <polygon id="Fill-124" fill="#FFBBD8" points="688.009401 331.389155 686.588581 326.316262 722.676541 301.523514 718.943157 344.768962"></polygon>
                                <polygon id="Fill-125" fill="#FFB7B7" points="752.722818 280.94822 775.05059 255.705353 804.145388 284.504365 795.345267 293.304062"></polygon>
                                <polygon id="Fill-126" fill="#F07E98" points="820.277875 344.768962 851.567902 349.925052 855.478356 379.967753 847.388645 406.10019"></polygon>
                                <polygon id="Fill-127" fill="#FFBAB8" points="773.877241 420.606358 800.010931 387.967479 828.898792 416.76649 801.478684 439.699036"></polygon>
                                <polygon id="Fill-128" fill="#E7C2D0" points="820.277875 344.768962 847.388645 406.10019 828.898792 416.76649 800.010931 387.967479"></polygon>
                                <polygon id="Fill-129" fill="#FFB7B7" points="718.943157 344.768962 749.343572 370.368083 772.63349 335.655675 749.343572 312.236746"></polygon>
                                <polygon id="Fill-130" fill="#FFBAB8" points="722.676541 301.523514 752.722818 280.94822 749.343572 312.236746 718.943157 344.768962"></polygon>
                                <polygon id="Fill-131" fill="#FF8073" points="774.412715 335.655675 794.750059 292.327029 754.502043 280.94822 751.122796 312.236746"></polygon>
                                <polygon id="Fill-132" fill="#FFBAB8" points="820.277875 344.768962 800.010931 387.967479 772.63349 335.655675 792.970835 292.327029"></polygon>
                                <polygon id="Fill-133" fill="#FF6E67" points="822.411237 289.3042 839.90481 299.838238 839.90481 347.648863 820.277875 344.768962 792.970835 292.327029"></polygon>
                                <path d="M363.115361,374.101288 L404.359658,366.991132 L413.603518,352.058312 L402.226296,351.345803 L401.515886,334.992231 L365.959134,357.745583 L373.782174,359.878843 L363.115361,374.101288 L363.115361,374.101288 Z" id="Fill-134" fill="#FFBAB8"></path>
                                <polygon id="Fill-135" fill="#FF8073" points="386.851152 322.903046 379.828123 349.925052 403.29511 334.992231 402.497233 321.480162"></polygon>
                                <polygon id="Fill-136" fill="#FFBAB8" points="380.805203 311.479438 391.472016 295.881041 401.515886 292.327029 395.028331 302.99333 404.272191 307.25985 393.605378 321.480162 380.805203 322.903046"></polygon>
                                <polygon id="Fill-137" fill="#FFBAB8" points="257.782722 235.439383 272.003717 198.463586 364.450846 146.552835 359.471578 189.930545"></polygon>
                                <polygon id="Fill-138" fill="#FFBBD8" points="380.805203 106.733402 364.450846 146.552835 359.471578 189.930545 414.939003 173.57484"></polygon>
                                <polygon id="Fill-139" fill="#FFBAB8" points="414.939003 173.57484 531.56353 131.620014 380.805203 106.733402"></polygon>
                                <polygon id="Fill-140" fill="#FFBAB8" points="623.298117 99.6211128 584.897592 125.932743 565.697329 120.953714 560.007652 76.8677607"></polygon>
                                <polygon id="Fill-141" fill="#FFC0BE" points="536.540664 139.442679 478.229468 80.421772 560.007652 76.8677607 565.697329 120.953714"></polygon>
                                <polygon id="Fill-252" fill="#FFB4D0" points="793.745245 292.327029 858.546131 288.638623 828.898792 261.704081"></polygon>
                                <polygon id="Fill-259" fill="#E2446A" points="569.238711 362.803543 517.42787 266.663911 530.780586 222.865948 570.09419 206.843031 610.365673 222.865948 625.322678 267.197226"></polygon>
                                <polygon id="Fill-260" fill="#C11D45" points="549.381373 235.81697 593.369174 235.81697 593.369174 279.802659 549.381373 279.802659"></polygon>
                                <polygon id="Fill-263" fill="#CA43B5" points="1000.4382 394.390725 966.342804 334.825837 975.183458 307.720634 1001.12301 297.832974 1027.67271 307.786765 1037.50324 335.246089"></polygon>
                                <polygon id="Fill-264" fill="#831972" points="987.441759 315.754492 1016.45336 315.790757 1016.41922 343.023955 987.407625 342.98769"></polygon>
                                <polygon id="Fill-265" fill-opacity="0.455" fill="#D0E1E5" points="71.8580485 173.018059 298.504345 166.012433 311.577591 112.141216 261.0681 71.4578131 215.93255 29.9488383 130.327114 58.1718693 110.410042 97.8590399 60.7986974 133.021566"></polygon>
                                <polygon id="Fill-266" fill-opacity="0.66" fill="#D0E1E5" points="58.2919965 342.102387 61.3939055 283.4804 119.355231 262.034736 176.490945 290.714285 176.817349 335.523413"></polygon>
                                <polygon id="Fill-267" fill-opacity="0.66" fill="#D0E1E5" points="599.570859 134.06473 807.4713 140.637304 821.621893 89.7953168 786.159008 58.9803749 757.205013 24.0695736 701.615987 27.9329076 685.157095 49.9033532 657.44685 43.8342282 637.745247 62.5194533 610.805146 72.4753782 585.516267 100.615212"></polygon>
                                <polygon id="Fill-268" fill-opacity="0.66" fill="#D0E1E5" points="877.341054 243.447641 1104.07909 240.644537 1118.14861 187.025045 1068.40073 145.413674 1024.04386 103.072728 937.928549 129.70648 917.281867 169.016063 867.026247 203.252754"></polygon>
                                <polygon id="Fill-269" fill-opacity="0.66" fill="#D0E1E5" points="354.982984 200.686443 510.436841 198.280125 519.968705 161.485655 485.770904 133.062098 455.265954 104.126558 396.280615 122.572858 382.206822 149.569264 347.825553 173.150321"></polygon>
                                <polygon id="Fill-270" fill-opacity="0.66" fill="#D0E1E5" points="835.017276 69.0237633 840.713354 20.3022362 890.493234 5.50807754 936.934402 32.4682185 934.84584 69.8536015"></polygon>
                                <polygon id="Fill-271" fill-opacity="0.399" fill="#D0E1E5" points="417.471304 89.837982 573.302767 84.7842889 581.447945 46.0741513 553.443295 24.7244844 530.11071 0 488.714944 5.55500926 477.455057 22.7789512 456.43717 19.5683948 442.595914 34.4905491 422.922045 43.2305156 405.355939 65.4910846"></polygon>
                                <polygon id="Fill-272" fill-opacity="0.66" fill="#D0E1E5" points="3.63311417 213.123349 6.83529126 162.456289 57.1485142 144.423841 106.303319 169.730705 106.190251 208.485641"></polygon>
                                <polygon id="Fill-273" fill="#4499E2" points="183.488374 257.994342 146.794539 198.167062 153.789835 169.585644 178.438705 157.895379 204.856132 166.729209 216.043485 194.636517"></polygon>
                                <polygon id="Fill-274" fill="#385DB5" points="166.188937 177.229115 194.413323 175.650502 195.992011 203.8714 167.767626 205.450012"></polygon>
                                <polygon id="Fill-275" fill="#ECCB4A" points="700.203701 257.667953 656.439903 176.461141 667.71899 139.466145 700.924777 125.932743 734.943375 139.466145 747.575015 176.911259"></polygon>
                                <polygon id="Fill-276" fill="#BCA031" points="683.431205 150.405502 720.585846 150.405502 720.585846 187.55836 683.431205 187.55836"></polygon>
                                <polygon id="Fill-277" fill-opacity="0.66" fill="#D0E1E5" points="983.906777 271.621607 992.800765 195.329827 1070.07542 172.10929 1142.11907 214.271043 1138.83369 272.811966"></polygon>
                            </g>
                        </g>
                    </g>
                </g>
            </g>
        </g>
    </g>
</svg>